<?xml version="1.0" encoding="UTF-8" standalone="no"?>
<!-- Created with Inkscape (http://www.inkscape.org/) -->
<svg sodipodi:docname="0321.svg" inkscape:version="1.1 (c68e22c387, 2021-05-23)" version="1.1" id="svg2" height="720" width="1800" inkscape:export-filename="C:\Documents and Settings\Felhasználó\Dokumentumok\WIKIPEDIA_TMP\hajítások\fuggoleges_hajitas1.png" inkscape:export-xdpi="300" inkscape:export-ydpi="300" xmlns:inkscape="http://www.inkscape.org/namespaces/inkscape" xmlns:sodipodi="http://sodipodi.sourceforge.net/DTD/sodipodi-0.dtd" xmlns="http://www.w3.org/2000/svg" xmlns:svg="http://www.w3.org/2000/svg" xmlns:rdf="http://www.w3.org/1999/02/22-rdf-syntax-ns#" xmlns:cc="http://creativecommons.org/ns#" xmlns:dc="http://purl.org/dc/elements/1.1/">
  <sodipodi:namedview id="base" pagecolor="#ffffff" bordercolor="#666666" borderopacity="1.0" inkscape:pageopacity="0.0" inkscape:pageshadow="2" inkscape:zoom="0.48722222" inkscape:cx="898.97378" inkscape:cy="359.17902" inkscape:document-units="px" inkscape:current-layer="layer1" showgrid="false" inkscape:window-width="1366" inkscape:window-height="705" inkscape:window-x="-8" inkscape:window-y="-8" inkscape:window-maximized="1" inkscape:snap-global="true" showguides="false" inkscape:guide-bbox="true" inkscape:snap-bbox="true" inkscape:snap-bbox-edge-midpoints="true" inkscape:bbox-nodes="true" inkscape:snap-nodes="true" inkscape:snap-center="true" inkscape:pagecheckerboard="0" inkscape:snap-bbox-midpoints="true" inkscape:snap-object-midpoints="true" inkscape:bbox-paths="true" inkscape:snap-others="true" inkscape:snap-intersection-paths="true" inkscape:object-paths="true" inkscape:snap-smooth-nodes="true" inkscape:snap-midpoints="false" width="1800px" height="720px">
    <sodipodi:guide position="646.52223,360" orientation="0,1" id="guide1172" inkscape:label="" inkscape:locked="false" inkscape:color="rgb(0,0,255)"/>
    <sodipodi:guide position="100,453.1813" orientation="-1,0" id="guide1184" inkscape:label="" inkscape:locked="false" inkscape:color="rgb(0,0,255)"/>
    <sodipodi:guide position="1600,611.22007" orientation="-1,0" id="guide2836" inkscape:label="" inkscape:locked="false" inkscape:color="rgb(0,0,255)"/>
  </sodipodi:namedview>
  <defs id="defs4">
    <marker style="overflow:visible" id="Arrow2Mstart" refX="0.0" refY="0.0" orient="auto" inkscape:stockid="Arrow2Mstart" inkscape:isstock="true">
      <path transform="scale(0.6) translate(0,0)" d="M 8.7185878,4.0337352 L -2.2072895,0.016013256 L 8.7185884,-4.0017078 C 6.9730900,-1.6296469 6.9831476,1.6157441 8.7185878,4.0337352 z " style="fill-rule:evenodd;fill:context-stroke;stroke-width:0.62500000;stroke-linejoin:round" id="path4752"/>
    </marker>
    <linearGradient id="linearGradient8342" inkscape:swatch="solid">
      <stop id="stop8344" offset="0" style="stop-color:#0000ff;stop-opacity:1;"/>
    </linearGradient>
    <linearGradient id="linearGradient5953" inkscape:swatch="solid">
      <stop id="stop5955" offset="0" style="stop-color:#0000ff;stop-opacity:1;"/>
    </linearGradient>
    <clipPath clipPathUnits="userSpaceOnUse" id="clipEmfPath1-0">
      <path d="M 57.17111,18.104185 L 1219.6504,18.104185 L 1219.6504,496.43581 L 57.17111,496.43581 z" id="path3749"/>
    </clipPath>
  </defs>
  <metadata id="metadata7">
    <rdf:RDF>
      <cc:Work rdf:about="">
        <dc:format>image/svg+xml</dc:format>
        <dc:type rdf:resource="http://purl.org/dc/dcmitype/StillImage"/>
      </cc:Work>
    </rdf:RDF>
  </metadata>
  <g transform="translate(0,387.63782)" id="layer1" inkscape:groupmode="layer" inkscape:label="1. réteg">
    <path style="fill:none;stroke:#000000;stroke-width:8;stroke-linecap:butt;stroke-linejoin:miter;stroke-miterlimit:4;stroke-dasharray:none;stroke-opacity:1;marker-start:url(#Arrow2Mstart)" d="m 100,-352.63782 v 615" id="path4551" sodipodi:nodetypes="cc"/>
    <path style="fill:none;stroke:#000000;stroke-width:8;stroke-linecap:butt;stroke-linejoin:miter;stroke-miterlimit:4;stroke-dasharray:none;stroke-opacity:1;marker-start:url(#Arrow2Mstart)" d="M 1700,-27.63676 H 90" id="path5015" sodipodi:nodetypes="cc"/>
    <text xml:space="preserve" style="font-style:italic;font-variant:normal;font-weight:normal;font-stretch:normal;font-size:96px;line-height:1.25;font-family:'Times New Roman';-inkscape-font-specification:'Times New Roman,  Italic'" x="130.14368" y="-316.8378" id="text6932"><tspan sodipodi:role="line" id="tspan6930" x="130.14368" y="-316.8378">x</tspan></text>
    <text xml:space="preserve" style="font-style:italic;font-variant:normal;font-weight:normal;font-stretch:normal;font-size:96px;line-height:1.25;font-family:'Times New Roman';-inkscape-font-specification:'Times New Roman,  Italic'" x="1671.9812" y="55.810303" id="text9172"><tspan sodipodi:role="line" id="tspan9170" x="1671.9812" y="55.810303">t</tspan></text>
    <path style="fill:#ff0000;fill-opacity:1;fill-rule:nonzero;stroke:#00a000;stroke-width:5.37673685;stroke-linecap:butt;stroke-linejoin:bevel;stroke-miterlimit:4;stroke-dasharray:none;stroke-opacity:1" clip-path="url(#clipEmfPath1-0)" d="m 56.754238,256.67446 1.66749,-13.81635 1.667491,-13.63769 1.667491,-13.28037 1.667491,-12.8635 1.66749,-12.32752 1.667491,-11.73199 1.667491,-11.01735 1.607937,-10.30271 1.667491,-9.40941 1.667491,-8.57567 1.66749,-7.62281 1.667491,-6.61041 1.667491,-5.53845 1.607937,-4.40694 1.667491,-3.39454 c 0.05955,-0.0596 0.05955,-0.0596 0.05955,-0.0596 l 1.667491,-2.26303 c 0.05955,-0.0596 0.05955,-0.1191 0.119106,-0.1191 l 1.667491,-1.07196 c 0.119107,-0.0596 0.17866,-0.11911 0.297766,-0.11911 l 1.667491,0.0596 c 0.05955,0.0596 0.17866,0.0596 0.238213,0.1191 l 1.667491,1.19107 c 0.05955,0 0.05955,0.0596 0.119106,0.1191 l 1.607938,2.26303 c 0,0 0,0.0596 0.05955,0.0596 l 1.667491,3.33498 1.66749,4.4665 1.667491,5.41934 1.667491,6.31264 1.667491,7.32505 1.667491,8.03969 1.66749,8.87343 1.60793,9.52852 1.66749,10.12405 1.66749,10.66003 1.6675,11.13646 1.66749,11.43422 1.66749,11.73199 1.60793,11.91065 3.33499,23.99995 1.66749,11.8511 1.66749,11.67243 1.66749,11.43422 1.60794,11.07691 1.66749,10.60047 1.66749,10.12405 1.66749,9.46897 1.66749,8.87343 1.66749,8.1588 1.66749,7.32504 1.66749,6.43175 1.60794,5.71711 1.66749,4.76426 1.66749,3.75186 1.60794,2.799 -0.0596,-0.0596 1.66749,1.9057 -0.1191,-0.11911 1.66749,0.8933 -0.23821,-0.0596 h 1.60793 l -0.23821,0.11911 1.66749,-1.01241 -0.11911,0.0596 1.6675,-1.96525 v 0.0596 l 1.66749,-2.85856 1.60793,-3.75185 1.66749,-4.5856 1.60794,-5.4789 1.66749,-6.19353 1.66749,-6.90818 1.66749,-7.62281 1.66749,-8.1588 1.6675,-8.75432 1.66749,-9.1712 1.66749,-9.52852 1.60793,-9.88584 3.33499,-20.36721 3.33498,-20.60542 3.27543,-20.30765 1.66749,-9.82629 1.66749,-9.52852 1.66749,-9.11164 1.66749,-8.75433 1.66749,-8.15879 1.60794,-7.62282 1.66749,-6.96773 1.66749,-6.43175 1.66749,-5.598 1.66749,-4.88337 1.66749,-4.16872 1.66749,-3.27543 1.72704,-2.50124 c 0,0 0,-0.0596 0.0596,-0.0596 l 1.60794,-1.66749 c 0,-0.0596 0.0596,-0.0596 0.1191,-0.11911 l 1.66749,-0.77419 c 0.0596,0 0.11911,-0.0596 0.23822,-0.0596 l 1.66749,0.0596 c 0.0596,0.0596 0.1191,0.0596 0.17866,0.0596 l 1.66749,0.83375 c 0.0596,0.0596 0.1191,0.0596 0.1191,0.1191 l 1.66749,1.6675 c 0,0 0.0596,0.0596 0.0596,0.0596 l 1.66749,2.50123 1.66749,3.33499 1.66749,3.99006 1.66749,4.76426 1.66749,5.35979 1.66749,5.95533 1.66749,6.55085 1.60794,7.14639 1.66749,7.50371 1.66749,7.86103 1.66749,8.21835 1.66749,8.51611 3.33498,17.50865 3.27543,17.80642 3.33498,17.4491 1.66749,8.45656 1.6675,8.15879 1.66749,7.86103 1.60793,7.50371 1.66749,7.02728 1.66749,6.61041 1.6675,5.95533 1.66749,5.41934 1.66749,4.82381 1.60793,4.22828 1.6675,3.45409 1.60793,2.73945 1.66749,2.14392 -0.0596,-0.11911 1.66749,1.42928 -0.11911,-0.0595 1.6675,0.71463 -0.23822,-0.0596 1.66749,-0.0596 -0.17866,0.0596 1.66749,-0.77419 -0.1191,0.0596 1.60793,-1.42928 -0.0596,0.11911 1.66749,-2.14392 1.66749,-2.799 1.60794,-3.39453 1.66749,-4.04962 1.66749,-4.52605 1.60794,-5.18113 1.66749,-5.59801 1.66749,-6.07443 1.66749,-6.43175 1.66749,-6.78907 1.66749,-7.08683 1.60794,-7.32505 3.33498,-15.06697 3.33498,-15.24563 3.33498,-15.06697 1.6675,-7.26549 1.60793,-7.08684 1.66749,-6.72952 1.66749,-6.4913 1.6675,-6.07443 1.66749,-5.65756 1.66749,-5.18113 1.60793,-4.7047 1.66749,-4.16873 1.6675,-3.63275 1.66749,-3.03721 1.72704,-2.50124 1.72704,-1.9057 c 0,0 0,-0.0596 0.0596,-0.0596 l 1.60793,-1.19106 c 0,0 0.0596,-0.0596 0.11911,-0.0596 l 1.66749,-0.59553 c 0.0596,0 0.11911,-0.0596 0.11911,-0.0596 h 1.66749 c 0.0596,0 0.11911,0.0596 0.17866,0.0596 l 1.66749,0.65509 c 0.0596,0 0.11911,0.0596 0.11911,0.0596 l 1.66749,1.25062 c 0.0596,0 0.0596,0.0595 0.0596,0.0595 l 1.66749,1.84615 1.72704,2.50124 1.6675,2.91811 1.66749,3.57319 1.66749,3.93052 1.66749,4.52604 1.66749,4.82381 1.66749,5.24069 1.66749,5.53845 1.60794,5.89577 1.66749,6.07443 1.66749,6.31265 3.33498,12.9826 3.27543,13.22082 3.33498,12.8635 3.33498,12.32752 1.66749,5.83622 1.66749,5.53845 1.66749,5.24069 1.60794,4.82381 1.66749,4.46649 1.66749,3.99007 1.66749,3.57319 1.66749,3.09677 1.60794,2.56079 1.60794,2.08436 -0.0595,-0.0596 1.66749,1.60794 -0.0596,-0.0596 1.66749,1.01241 -0.1191,-0.0596 1.66749,0.53598 -0.17866,-0.0596 1.66749,-0.0596 -0.11911,0.0596 1.66749,-0.53598 -0.1191,0.0596 1.60793,-1.07196 -0.0596,0.0596 1.66749,-1.60794 1.60794,-2.08436 1.66749,-2.44168 1.60794,-2.97766 1.66749,-3.39454 1.66749,-3.81141 3.27543,-8.63522 1.66749,-4.76426 1.66749,-5.06202 3.33498,-10.66003 3.27543,-11.13646 3.33498,-11.31511 3.33498,-11.13646 3.27543,-10.66003 3.33498,-9.76673 3.33498,-8.69477 1.66749,-3.87096 1.66749,-3.45409 1.66749,-3.09677 1.6675,-2.73945 1.66749,-2.26302 1.72704,-1.84615 1.66749,-1.42928 c 0.0596,0 0.0596,0 0.11911,-0.0596 l 1.66749,-0.8933 c 0,0 0.0596,0 0.0596,0 l 1.66749,-0.47643 c 0.0596,0 0.11911,-0.0596 0.17866,-0.0596 l 1.60794,0.0596 c 0,0 0.0596,0.0596 0.11911,0.0596 l 1.66749,0.47642 c 0,0 0.0596,0 0.0596,0 l 1.66749,0.8933 c 0.0596,0.0596 0.0596,0.0596 0.11911,0.0596 l 1.66749,1.36973 1.66749,1.84615 c 0.0596,0 0.0596,0.0596 0.0596,0.0596 l 3.27543,4.76426 1.66749,3.03722 1.72704,3.27542 1.66749,3.5732 1.6675,3.87096 3.33498,8.51611 3.27543,9.1712 3.33498,9.64763 3.33498,9.76673 3.27543,9.58807 3.33498,9.11165 3.33498,8.397 3.27543,7.44416 1.66749,3.27543 1.60794,2.97766 3.33498,4.94292 1.60793,1.84615 1.6675,1.54838 -0.0596,-0.0596 3.27543,1.96525 -0.23821,-0.0596 3.33498,0.35732 h -0.17866 l 3.33498,-1.19106 -0.11911,0.0596 1.66749,-1.19107 -0.0596,0.0596 1.60794,-1.54839 3.27543,-4.10917 1.66749,-2.44168 1.66749,-2.85856 3.21587,-6.3722 3.33498,-7.26549 3.33499,-7.92058 3.33498,-8.2779 3.27543,-8.2779 3.33498,-8.33746 3.33498,-7.86102 3.27543,-7.2655 3.33498,-6.43175 3.39453,-5.4789 3.27543,-4.22828 c 0,-0.0596 0.0595,-0.0596 0.0595,-0.0596 l 3.33499,-3.03722 c 0.0595,-0.0596 0.0595,-0.0596 0.1191,-0.1191 l 3.33498,-1.66749 c 0.0596,0 0.11911,0 0.17866,0 l 3.33498,-0.29777 c 0.0596,-0.0596 0.11911,0 0.17866,0 l 3.27543,1.07196 c 0.0596,0 0.0596,0 0.11911,0.0596 l 3.33498,2.32258 c 0,0 0.0595,0.0596 0.0595,0.0596 l 3.33499,3.51364 3.33498,4.64516 3.33498,5.53845 3.39453,6.37219 3.27543,6.78907 3.33498,7.08684 3.33498,7.26549 3.33499,7.08684 3.27542,6.72952 3.33499,6.25309 3.27542,5.47889 3.27543,4.64516 3.27543,3.63275 -0.0595,-0.0596 3.33498,2.56079 -0.0596,-0.0596 3.27543,1.48883 -0.17866,-0.0596 3.33498,0.23821 -0.17866,0.0596 3.33499,-0.8933 -0.11911,0.0596 3.33498,-2.02481 -0.0596,0.0596 3.27543,-3.03722 3.27542,-3.93051 3.33499,-4.70471 3.27542,-5.41934 3.33499,-5.83622 3.27542,-6.07443 3.27543,-6.19354 3.33498,-6.13398 3.39454,-5.89577 3.33498,-5.35979 3.27543,-4.76426 3.33498,-4.04962 3.39453,-3.15632 c 0,-0.0596 0.0596,-0.0596 0.0596,-0.0596 l 3.27543,-2.26302 c 0,0 0.0595,-0.0596 0.1191,-0.0596 l 3.33498,-1.25062 c 0,0 0.0596,0 0.11911,-0.0596 l 3.33498,-0.17866 c 0.0596,0 0.0596,0 0.11911,0.0596 l 3.27543,0.71464 c 0.0596,0 0.1191,0 0.1191,0 l 3.33498,1.72704 c 0.0596,0.0596 0.0596,0.0596 0.0596,0.0596 l 3.33498,2.62034 3.39453,3.51364 3.33498,4.10917 3.33499,4.70471 3.33498,5.00247 3.27543,5.30024 3.33498,5.35979 3.33498,5.24069 3.27543,5.00247 3.33498,4.64515 3.33498,4.04962 3.27543,3.45409 3.27543,2.62034 h -0.11911 l 3.33498,1.90571 -0.0595,-0.0596 3.33498,1.07196 -0.11911,-0.0596 3.27543,0.23821 -0.11911,0.0596 3.33499,-0.71463 h -0.11911 l 3.33498,-1.48884 -0.0596,0.0596 3.27543,-2.20347 3.27542,-2.91811 3.33499,-3.51364 3.27542,-3.99007 3.27543,-4.28783 3.33498,-4.52605 3.33498,-4.5856 3.27543,-4.52604 3.33498,-4.34739 3.33499,-4.04962 3.33498,-3.51364 3.33498,-2.97766 3.39453,-2.38213 c 0,0 0.0596,-0.0596 0.0596,-0.0596 l 3.33498,-1.66749 c 0,0 0.0596,0 0.0596,0 l 3.27543,-0.8933 c 0.0596,0 0.0596,0 0.11911,-0.0596 l 3.33498,-0.17866 c 0.0595,0 0.0595,0 0.1191,0.0596 l 3.33499,0.53598 c 0,0 0.0596,0 0.0596,0 l 3.27543,1.31017 c 0.0595,0 0.0595,0 0.1191,0.0596 l 3.33498,1.96525 3.33499,2.50124 3.33498,3.09677 3.33498,3.45409 3.33498,3.6923 3.39454,3.93051 3.27542,3.99007 3.33498,3.87096 3.27543,3.6923 3.27543,3.45409 3.33498,3.03721 3.27543,2.50124 3.27543,2.02481 -0.0596,-0.0596 3.33498,1.36972 h -0.11911 l 3.33498,0.83375 -0.0596,-0.0596 3.33498,0.11911 -0.11911,0.0596 3.27543,-0.47642 h -0.0595 l 3.33498,-1.13152 3.27543,-1.66749 3.21587,-2.08436 3.33498,-2.62034 3.27543,-2.91811 3.27543,-3.21588 3.33498,-3.33498 3.33498,-3.39453 3.33499,-3.39454 3.27542,-3.15632 3.33499,-2.97766 3.39453,-2.6799 3.27543,-2.20347 3.39453,-1.78659 3.39454,-1.19107 3.33498,-0.71464 c 0,0 0.0595,-0.0596 0.0595,-0.0596 l 3.33498,-0.11911 c 0.0596,0 0.0596,0 0.0596,0.0596 l 3.33498,0.41687 c 0.0596,0 0.0596,0 0.1191,0 l 3.33499,0.95285 3.33498,1.42928 3.33498,1.96526 3.39453,2.20347 3.27543,2.56079 3.39454,2.799 3.33498,2.85855 3.27543,3.03722 3.33498,2.799 3.33498,2.73945 3.27543,2.56079 3.27543,2.26302 3.27542,1.7866 3.33499,1.48883 3.21587,1.07196 3.27543,0.59553 3.27543,0.0596 -0.0596,0.0596 3.27543,-0.35732 3.27543,-0.83375 3.27543,-1.25062 3.27543,-1.60793 3.21587,-1.84615 3.33498,-2.20347 3.335,-2.38213 3.2754,-2.50124 3.335,-2.50124 3.335,-2.50123 3.2754,-2.38213 3.335,-2.20347 3.3349,-1.9057 3.3946,-1.72705 3.335,-1.25062 3.3349,-0.89329 3.3946,-0.53598 3.335,-0.11911 3.3945,0.35732 3.3945,0.71464 3.335,1.07196 3.3945,1.36972 3.335,1.66749 3.335,1.96526 3.335,2.02481 3.335,2.14392 3.335,2.20346 3.2754,2.08437 3.335,2.08436 3.2754,1.7866 3.2754,1.66749 3.335,1.42928 3.2754,1.07196 3.2755,0.77419 3.2754,0.47642 h 3.2754 l 3.2754,-0.23821 3.2159,-0.59553 3.2754,-0.8933 3.335,-1.19106 3.2159,-1.42928 c 0.2382,-0.11911 0.536,0 0.6551,0.23821 0.1191,0.23821 0,0.53598 -0.2382,0.65509 l -3.335,1.42927 -3.335,1.19107 -3.3945,0.8933 -3.335,0.65508 -3.3945,0.23822 -3.3946,-0.0596 -3.2754,-0.47642 -3.3945,-0.7742 -3.3946,-1.07195 -3.335,-1.42928 -3.2754,-1.72705 -3.3945,-1.84615 -3.335,-2.08436 -3.2754,-2.08436 -3.335,-2.20347 -3.335,-2.14392 -3.2754,-2.02481 -3.2754,-1.84615 -3.335,-1.66749 -3.2755,-1.36973 -3.2158,-1.07195 -3.2755,-0.71464 -3.2754,-0.29777 -3.2159,0.0596 -3.2754,0.53598 -3.335,0.8933 -3.2158,1.25062 -3.335,1.60794 -3.2755,1.9057 -3.3349,2.20347 -3.2755,2.38213 -3.3349,2.50124 -3.335,2.50123 -3.2755,2.50124 -3.3349,2.38213 -3.39455,2.20347 -3.27543,1.96526 -3.39454,1.60793 -3.39453,1.25062 -3.39454,0.83375 -3.27542,0.35732 c 0,0 0,0 -0.0596,0 l -3.39453,-0.11911 -3.39454,-0.59553 -3.33498,-1.07196 -3.33498,-1.54839 -3.39453,-1.84615 -3.27543,-2.26302 -3.39454,-2.56079 -3.33498,-2.73945 -3.33498,-2.91811 -3.27543,-2.9181 -3.33498,-2.85856 -3.27543,-2.799 -3.27543,-2.56079 -3.33498,-2.20347 -3.27543,-1.84615 -3.21587,-1.42928 -3.33498,-0.95285 h 0.0595 l -3.33498,-0.41687 h 0.11911 l -3.33498,0.1191 h 0.0595 l -3.21588,0.71464 -3.27542,1.19107 -3.27543,1.66749 -3.27543,2.20347 -3.27543,2.56079 -3.33498,2.97766 -3.27543,3.15632 -3.33498,3.39453 -3.33498,3.39454 -3.33498,3.33498 -3.27543,3.21587 -3.39454,3.03722 -3.33498,2.62034 -3.33498,2.20347 -3.39453,1.66749 -3.33498,1.13151 c 0,0 -0.0596,0 -0.0596,0 l -3.27543,0.47643 c -0.0596,0 -0.0596,0 -0.1191,0 l -3.33498,-0.11911 c 0,0 -0.0596,0 -0.0596,0 l -3.33498,-0.83374 c -0.0596,0 -0.0596,0 -0.11911,0 l -3.33498,-1.36973 c 0,0 0,0 -0.0595,-0.0596 l -3.27543,-2.02481 -3.39453,-2.62034 -3.33498,-3.03722 -3.27543,-3.45408 -3.39454,-3.69231 -3.33498,-3.87096 -3.27543,-3.99006 -3.27543,-3.93052 -3.33498,-3.6923 -3.33498,-3.45409 -3.21587,-2.97766 -3.33498,-2.50123 -3.33499,-1.96526 0.0596,0.0596 -3.27543,-1.31017 h 0.11911 l -3.33499,-0.53598 h 0.11911 l -3.33498,0.17866 h 0.11911 l -3.27543,0.8933 h 0.0595 l -3.33498,1.66749 0.0595,-0.0596 -3.27543,2.26302 -3.33498,2.97766 -3.21587,3.51364 -3.33498,3.93052 -3.33498,4.34738 -3.27543,4.52605 -3.33498,4.5856 -3.33499,4.52605 -3.27542,4.40694 -3.39454,3.99006 -3.33498,3.51364 -3.39454,3.03722 -3.27542,2.20347 c 0,0 -0.0596,0.0596 -0.0596,0.0596 l -3.33498,1.48883 c -0.0595,0 -0.0595,0 -0.1191,0 l -3.33499,0.71464 c -0.0596,0 -0.0596,0.0596 -0.1191,0 l -3.27543,-0.23821 c -0.0595,0 -0.0595,0 -0.11911,0 l -3.33498,-1.07196 c -0.0596,0 -0.0596,0 -0.1191,-0.0596 l -3.33499,-1.90571 c 0,0 0,0 -0.0595,0 l -3.27543,-2.73944 -3.39453,-3.45409 -3.33498,-4.16873 -3.33499,-4.64515 -3.27542,-5.00247 -3.33499,-5.24069 -3.33498,-5.35979 -3.27542,-5.30024 -3.33499,-5.00247 -3.33498,-4.64515 -3.21587,-4.04962 -3.27543,-3.39454 -3.33498,-2.62034 0.0596,0.0596 -3.33498,-1.72704 h 0.11911 l -3.27543,-0.71464 h 0.1191 l -3.33498,0.17866 h 0.11911 l -3.33498,1.25062 0.1191,-0.0596 -3.27542,2.26303 0.0595,-0.0596 -3.27543,3.15632 -3.33498,3.93052 -3.27543,4.76426 -3.33498,5.30024 -3.33498,5.83621 -3.27543,6.13399 -3.33498,6.19353 -3.33498,6.13399 -3.33498,5.89577 -3.27543,5.41934 -3.33498,4.82382 -3.39454,3.93051 -3.27543,3.03722 c 0,0.0596 -0.0595,0.0596 -0.0595,0.0596 l -3.33498,2.02481 c -0.0595,0.0596 -0.11911,0.0596 -0.11911,0.0596 l -3.33498,0.8933 c -0.0595,0 -0.11911,0.0596 -0.17866,0 l -3.33498,-0.23821 c -0.0595,0 -0.11911,0 -0.17866,0 l -3.27543,-1.48883 c 0,-0.0596 -0.0596,-0.0596 -0.0596,-0.0596 l -3.33498,-2.56079 c -0.0596,0 -0.0596,-0.0596 -0.0596,-0.0596 l -3.39453,-3.75185 -3.27543,-4.64516 -3.39453,-5.598 -3.33498,-6.25309 -3.27543,-6.72952 -3.33498,-7.08683 -3.33499,-7.2655 -3.33498,-7.08683 -3.27543,-6.78907 -3.27542,-6.25309 -3.33499,-5.53845 -3.21587,-4.52605 -3.33498,-3.51364 0.0596,0.0595 -3.33498,-2.32257 0.11911,0.0596 -3.27543,-1.07196 h 0.17866 l -3.33498,0.29777 h 0.17866 l -3.33498,1.66749 0.1191,-0.11911 -3.33498,3.03722 0.0596,-0.0596 -3.27542,4.22828 -3.27543,5.35979 -3.33498,6.43175 -3.27543,7.2655 -3.33498,7.80147 -3.33499,8.2779 -3.27542,8.33746 -3.33499,8.33745 -3.33498,7.92058 -3.33498,7.2655 -3.33498,6.43175 -1.66749,2.91811 -1.66749,2.56079 -3.39454,4.10917 -1.60793,1.54838 c 0,0.0596 -0.0596,0.0596 -0.0596,0.0596 l -1.66749,1.19106 c 0,0 -0.0596,0.0596 -0.1191,0.0596 l -3.33499,1.19107 c -0.0596,0 -0.1191,0.0596 -0.17865,0 l -3.33499,-0.35732 c -0.1191,0 -0.17866,0 -0.23821,-0.0596 l -3.27543,-1.96526 c 0,0 -0.0596,0 -0.0596,-0.0596 l -1.72704,-1.54839 -1.6675,-1.96525 -3.39453,-5.06203 -1.66749,-2.97766 -1.66749,-3.27543 -3.27543,-7.56326 -3.33498,-8.39701 -3.33498,-9.11164 -3.27543,-9.58808 -3.33498,-9.76673 -3.33498,-9.64762 -3.27543,-9.1712 -3.33498,-8.39701 -1.66749,-3.87096 -1.66749,-3.57319 -1.6675,-3.27543 -1.60793,-2.91811 -3.27543,-4.76426 0.0596,0.0596 -1.66749,-1.72704 -1.66749,-1.36972 0.11911,0.0596 -1.66749,-0.8933 h 0.0596 l -1.66749,-0.47643 h 0.11911 l -1.60794,-0.0596 h 0.17866 l -1.66749,0.47643 h 0.0596 l -1.66749,0.8933 0.11911,-0.0596 -1.66749,1.31017 -1.60794,1.72705 -1.66749,2.26302 -1.54839,2.62034 -1.66749,3.09677 -1.66749,3.45409 -1.66749,3.75185 -3.33498,8.69478 -3.33498,9.76673 -3.27543,10.66003 -3.33498,11.13645 -3.33498,11.31512 -3.27543,11.13646 -3.33498,10.66003 -1.66749,5.06202 -1.66749,4.76426 -3.27543,8.75433 -1.66749,3.8114 -1.72705,3.39454 -1.66749,3.09677 -1.66749,2.50123 -1.72704,2.14392 -1.66749,1.60794 c 0,0.0596 -0.0596,0.0596 -0.0596,0.0596 l -1.60793,1.07196 c -0.0596,0.0596 -0.0596,0.0596 -0.11911,0.0596 l -1.66749,0.53598 c -0.0596,0 -0.11911,0 -0.11911,0 l -1.66749,0.0596 c -0.0596,0 -0.1191,0 -0.17866,0 l -1.66749,-0.53597 c -0.0596,0 -0.0596,0 -0.11911,-0.0596 l -1.66749,-1.0124 c 0,0 -0.0596,0 -0.0596,-0.0596 l -1.66749,-1.60793 c 0,0 -0.0596,0 -0.0596,-0.0596 l -1.60794,-2.08436 -1.72704,-2.6799 -1.6675,-3.09676 -1.66749,-3.5732 -1.66749,-4.10917 -1.66749,-4.4665 -1.60794,-4.82381 -1.66749,-5.24068 -1.66749,-5.53845 -1.66749,-5.83622 -3.33498,-12.38708 -3.33498,-12.92305 -3.27543,-13.16127 -3.33498,-12.92305 -1.66749,-6.31264 -1.66749,-6.07443 -1.60794,-5.89577 -1.66749,-5.53845 -1.66749,-5.24069 -1.66749,-4.82381 -1.66749,-4.40694 -1.66749,-3.93052 -1.54839,-3.51364 -1.66749,-2.85855 -1.60793,-2.38213 -1.6675,-1.84615 0.0596,0.0596 -1.66749,-1.25062 0.1191,0.0596 -1.66749,-0.65509 h 0.11911 -1.66749 0.17866 l -1.66749,0.59553 0.1191,-0.0596 -1.60793,1.19106 0.0596,-0.0596 -1.60794,1.7866 -1.66749,2.38213 -1.60794,3.03721 -1.66749,3.5732 -1.66749,4.10917 -1.60793,4.70471 -1.6675,5.18113 -1.66749,5.65756 -1.66749,6.01487 -1.66749,6.43175 -1.66749,6.72952 -1.60794,7.08684 -1.66749,7.26549 -3.33498,15.06697 -3.33498,15.24563 -3.33498,15.06697 -1.60794,7.32505 -1.66749,7.08683 -1.66749,6.84863 -1.66749,6.4913 -1.66749,6.07443 -1.66749,5.598 -1.60794,5.18114 -1.66749,4.64515 -1.66749,4.04962 -1.72704,3.51364 -1.6675,2.799 -1.66749,2.14392 c -0.0596,0.0596 -0.0596,0.0596 -0.0596,0.0596 l -1.60794,1.42928 c -0.0596,0.0596 -0.0596,0.0596 -0.1191,0.11911 l -1.66749,0.77419 c -0.0596,0 -0.11911,0 -0.17866,0 l -1.66749,0.0596 c -0.0596,0.0596 -0.17866,0 -0.23822,0 l -1.66749,-0.71464 c 0,0 -0.0596,-0.0596 -0.1191,-0.0596 l -1.6675,-1.42928 c 0,-0.0596 -0.0596,-0.0596 -0.0596,-0.1191 l -1.66749,-2.14392 -1.72704,-2.85856 -1.66749,-3.57319 -1.60794,-4.22828 -1.66749,-4.82381 -1.66749,-5.41935 -1.66749,-6.07443 -1.66749,-6.61041 -1.6675,-7.02728 -1.60793,-7.50371 -1.66749,-7.86103 -1.66749,-8.15879 -1.66749,-8.45656 -3.33499,-17.4491 -3.27542,-17.80642 -3.33499,-17.50865 -1.66749,-8.51611 -1.66749,-8.21835 -1.66749,-7.86103 -1.66749,-7.50371 -1.60794,-7.08683 -1.66749,-6.49131 -1.66749,-5.95532 -1.66749,-5.35979 -1.66749,-4.64515 -1.66749,-3.99007 -1.54838,-3.21588 -1.66749,-2.50123 0.0596,0.0596 -1.66749,-1.66749 0.1191,0.11911 -1.66749,-0.83375 h 0.17866 l -1.66749,-0.0596 h 0.23822 l -1.6675,0.77419 0.11911,-0.11911 -1.60794,1.66749 0.0596,-0.0596 -1.60794,2.38213 -1.66749,3.21588 -1.66749,4.10917 -1.66749,4.88337 -1.66749,5.53845 -1.66749,6.37219 -1.66749,6.96773 -1.60794,7.62282 -1.66749,8.15879 -1.66749,8.75433 -1.66749,9.11164 -1.6675,9.52852 -1.66749,9.82629 -3.27542,20.30765 -3.33499,20.60542 -3.33498,20.36721 -1.60793,9.88584 -1.6675,9.52852 -1.66749,9.1712 -1.66749,8.75432 -1.66749,8.1588 -1.66749,7.62281 -1.66749,7.02728 -1.66749,6.19354 -1.60794,5.4789 -1.66749,4.7047 -1.72704,3.81141 -1.66749,2.85856 c 0,0.0596 0,0.0596 0,0.1191 l -1.66749,1.96526 c -0.0596,0 -0.11911,0.0596 -0.11911,0.0596 l -1.66749,1.01241 c -0.11911,0.0596 -0.17866,0.0596 -0.29777,0.0596 h -1.60793 c -0.0596,0 -0.11911,0 -0.17866,0 l -1.66749,-0.8933 c -0.0596,-0.0596 -0.11911,-0.1191 -0.17866,-0.1191 l -1.66749,-1.90571 c 0,-0.0596 0,-0.0596 0,-0.1191 l -1.72705,-2.85856 -1.66749,-3.87096 -1.66749,-4.76426 -1.60794,-5.77666 -1.66749,-6.49131 -1.66749,-7.32505 -1.66749,-8.15879 -1.66749,-8.87343 -1.66749,-9.46897 -1.66749,-10.12405 -1.66749,-10.60047 -1.60794,-11.07691 -1.66749,-11.43422 -1.66749,-11.67243 -1.66749,-11.8511 -3.33498,-23.99995 -1.60794,-11.91065 -1.66749,-11.73199 -1.66749,-11.43422 -1.66749,-11.13646 -1.66749,-10.66003 -1.6675,-10.12405 -1.60793,-9.52852 -1.667489,-8.87343 -1.667491,-8.03969 -1.667491,-7.20594 -1.66749,-6.31264 -1.667491,-5.41935 -1.667491,-4.34739 -1.667491,-3.33498 0.05955,0.0596 -1.607938,-2.26303 0.119107,0.11911 -1.667491,-1.19106 0.238213,0.0596 -1.667491,-0.0596 0.297766,-0.0596 -1.66749,1.07196 0.119106,-0.11911 -1.667491,2.26303 0.05955,-0.0596 -1.667491,3.27543 -1.607938,4.40694 -1.66749,5.4789 -1.667491,6.55086 -1.667491,7.62281 -1.66749,8.57567 -1.667491,9.40941 -1.607938,10.30271 -1.66749,11.01735 -1.667491,11.73199 -1.667491,12.26796 -1.667491,12.8635 -1.66749,13.28038 -1.667491,13.57814 -1.667491,13.81635 c 0,0.29776 -0.238213,0.47642 -0.476426,0.41687 -0.297766,0 -0.476426,-0.23821 -0.416872,-0.47643 z" id="path3769" transform="matrix(1.4120187,0,0,1.5678408,19.273324,-430.2963)"/>
  </g>
</svg>