<?xml version="1.0" encoding="UTF-8" standalone="no"?>
<!-- Created with Inkscape (http://www.inkscape.org/) -->
<svg sodipodi:docname="0320.svg" inkscape:version="1.1 (c68e22c387, 2021-05-23)" version="1.1" id="svg2" height="720" width="1800" inkscape:export-filename="C:\Documents and Settings\Felhasználó\Dokumentumok\WIKIPEDIA_TMP\hajítások\fuggoleges_hajitas1.png" inkscape:export-xdpi="300" inkscape:export-ydpi="300" xmlns:inkscape="http://www.inkscape.org/namespaces/inkscape" xmlns:sodipodi="http://sodipodi.sourceforge.net/DTD/sodipodi-0.dtd" xmlns="http://www.w3.org/2000/svg" xmlns:svg="http://www.w3.org/2000/svg" xmlns:rdf="http://www.w3.org/1999/02/22-rdf-syntax-ns#" xmlns:cc="http://creativecommons.org/ns#" xmlns:dc="http://purl.org/dc/elements/1.1/">
  <sodipodi:namedview id="base" pagecolor="#ffffff" bordercolor="#666666" borderopacity="1.0" inkscape:pageopacity="0.0" inkscape:pageshadow="2" inkscape:zoom="0.17225907" inkscape:cx="896.90488" inkscape:cy="359.923" inkscape:document-units="px" inkscape:current-layer="layer1" showgrid="false" inkscape:window-width="1366" inkscape:window-height="705" inkscape:window-x="-8" inkscape:window-y="-8" inkscape:window-maximized="1" inkscape:snap-global="true" showguides="false" inkscape:guide-bbox="true" inkscape:snap-bbox="true" inkscape:snap-bbox-edge-midpoints="true" inkscape:bbox-nodes="true" inkscape:snap-nodes="true" inkscape:snap-center="true" inkscape:pagecheckerboard="0" inkscape:snap-bbox-midpoints="true" inkscape:snap-object-midpoints="true" inkscape:bbox-paths="true" inkscape:snap-others="true" inkscape:snap-intersection-paths="true" inkscape:object-paths="true" inkscape:snap-smooth-nodes="true" inkscape:snap-midpoints="false" width="1800px" height="720px">
    <sodipodi:guide position="646.52223,360" orientation="0,1" id="guide1172" inkscape:label="" inkscape:locked="false" inkscape:color="rgb(0,0,255)"/>
    <sodipodi:guide position="100,453.1813" orientation="-1,0" id="guide1184" inkscape:label="" inkscape:locked="false" inkscape:color="rgb(0,0,255)"/>
    <sodipodi:guide position="1600,611.22007" orientation="-1,0" id="guide2836" inkscape:label="" inkscape:locked="false" inkscape:color="rgb(0,0,255)"/>
  </sodipodi:namedview>
  <defs id="defs4">
    <marker style="overflow:visible" id="Arrow2Mstart" refX="0.0" refY="0.0" orient="auto" inkscape:stockid="Arrow2Mstart" inkscape:isstock="true">
      <path transform="scale(0.6) translate(0,0)" d="M 8.7185878,4.0337352 L -2.2072895,0.016013256 L 8.7185884,-4.0017078 C 6.9730900,-1.6296469 6.9831476,1.6157441 8.7185878,4.0337352 z " style="fill-rule:evenodd;fill:context-stroke;stroke-width:0.62500000;stroke-linejoin:round" id="path4752"/>
    </marker>
    <linearGradient id="linearGradient8342" inkscape:swatch="solid">
      <stop id="stop8344" offset="0" style="stop-color:#0000ff;stop-opacity:1;"/>
    </linearGradient>
    <linearGradient id="linearGradient5953" inkscape:swatch="solid">
      <stop id="stop5955" offset="0" style="stop-color:#0000ff;stop-opacity:1;"/>
    </linearGradient>
    <clipPath clipPathUnits="userSpaceOnUse" id="clipEmfPath1-0">
      <path d="M 57.17111,18.104185 L 1219.6504,18.104185 L 1219.6504,496.43581 L 57.17111,496.43581 z" id="path3749"/>
    </clipPath>
  </defs>
  <metadata id="metadata7">
    <rdf:RDF>
      <cc:Work rdf:about="">
        <dc:format>image/svg+xml</dc:format>
        <dc:type rdf:resource="http://purl.org/dc/dcmitype/StillImage"/>
      </cc:Work>
    </rdf:RDF>
  </metadata>
  <g transform="translate(0,387.63782)" id="layer1" inkscape:groupmode="layer" inkscape:label="1. réteg">
    <path style="fill:none;stroke:#000000;stroke-width:8;stroke-linecap:butt;stroke-linejoin:miter;stroke-miterlimit:4;stroke-dasharray:none;stroke-opacity:1;marker-start:url(#Arrow2Mstart)" d="m 100,-352.63782 v 615" id="path4551" sodipodi:nodetypes="cc"/>
    <path style="fill:none;stroke:#000000;stroke-width:8;stroke-linecap:butt;stroke-linejoin:miter;stroke-miterlimit:4;stroke-dasharray:none;stroke-opacity:1;marker-start:url(#Arrow2Mstart)" d="M 1700,-27.63676 H 90" id="path5015" sodipodi:nodetypes="cc"/>
    <text xml:space="preserve" style="font-style:italic;font-variant:normal;font-weight:normal;font-stretch:normal;font-size:96px;line-height:1.25;font-family:'Times New Roman';-inkscape-font-specification:'Times New Roman,  Italic'" x="130.14368" y="-316.8378" id="text6932"><tspan sodipodi:role="line" id="tspan6930" x="130.14368" y="-316.8378">x</tspan></text>
    <text xml:space="preserve" style="font-style:italic;font-variant:normal;font-weight:normal;font-stretch:normal;font-size:96px;line-height:1.25;font-family:'Times New Roman';-inkscape-font-specification:'Times New Roman,  Italic'" x="1671.9812" y="55.810303" id="text9172"><tspan sodipodi:role="line" id="tspan9170" x="1671.9812" y="55.810303">t</tspan></text>
    <path style="fill:#0000ff;fill-opacity:1;fill-rule:nonzero;stroke:#00a000;stroke-width:5.37663899;stroke-linecap:butt;stroke-linejoin:bevel;stroke-miterlimit:4;stroke-dasharray:none;stroke-opacity:1" clip-path="url(#clipEmfPath1-0)" d="m 56.754238,256.79357 3.334981,-27.5136 1.667491,-13.57813 1.667491,-13.22082 1.66749,-12.80395 1.667491,-12.26797 1.667491,-11.67243 1.607937,-10.9578 1.667491,-10.1836 1.667491,-9.34986 1.66749,-8.45656 1.667491,-7.44416 1.667491,-6.43175 1.607937,-5.30024 1.667491,-4.22828 1.667491,-2.97766 c 0.05955,-0.0596 0.05955,-0.0596 0.119106,-0.1191 l 1.667491,-1.846154 c 0,-0.05955 0.119106,-0.119107 0.17866,-0.119107 l 1.66749,-0.595532 c 0.119107,-0.05955 0.17866,-0.05955 0.297767,0 l 1.66749,0.595532 c 0.05955,0 0.17866,0.05955 0.238213,0.119107 l 1.607938,1.846154 c 0,0.0596 0,0.0596 0,0.1191 l 1.66749,2.97766 1.727044,4.16873 1.667491,5.35979 1.667491,6.3722 1.667491,7.50371 1.667495,8.45656 1.66749,9.34986 1.60793,10.1836 1.66749,10.9578 1.66749,11.67243 1.6675,12.26797 1.66749,12.80395 1.66749,13.22082 1.60793,13.57813 3.33499,27.5136 3.33498,27.57315 1.66749,13.45903 1.60794,13.28038 1.66749,12.74439 1.66749,12.20841 1.66749,11.73199 1.66749,10.9578 1.66749,10.1836 1.66749,9.34986 1.66749,8.39701 1.60794,7.50371 1.66749,6.31264 1.66749,5.30024 1.66749,4.10917 1.60794,2.97766 -0.0596,-0.1191 1.6675,1.78659 -0.17866,-0.1191 1.60793,0.59553 h -0.29776 l 1.66749,-0.59553 -0.17866,0.1191 1.66749,-1.78659 -0.11911,0.1191 1.66749,-2.97766 1.66749,-4.16873 1.66749,-5.24068 1.60794,-6.31264 1.66749,-7.50371 1.66749,-8.39701 1.66749,-9.34986 1.66749,-10.1836 1.6675,-10.9578 1.66749,-11.73199 1.66749,-12.20841 1.60793,-12.80395 1.6675,-13.22082 1.66749,-13.51858 3.33498,-27.5136 3.27543,-27.5136 1.66749,-13.57813 1.66749,-13.22082 1.66749,-12.80395 1.66749,-12.26797 1.66749,-11.67243 1.60794,-10.9578 1.66749,-10.1836 1.66749,-9.34986 1.66749,-8.45656 1.66749,-7.44416 1.66749,-6.43175 1.66749,-5.30024 1.66749,-4.22828 1.60794,-2.97766 c 0.0596,-0.0596 0.0596,-0.0596 0.11911,-0.1191 l 1.66749,-1.846154 c 0,-0.05955 0.1191,-0.119107 0.17866,-0.119107 l 1.66749,-0.595532 c 0.1191,-0.05955 0.17866,-0.05955 0.29776,0 l 1.66749,0.595532 c 0.0596,0 0.17866,0.05955 0.17866,0.119107 l 1.66749,1.846154 c 0.0596,0.0596 0.0596,0.0596 0.0596,0.1191 l 1.66749,2.97766 c 0.0596,0 0.0596,0 0.0596,0.0596 l 1.60794,4.16872 1.66749,5.30024 1.66749,6.3722 1.66749,7.50371 1.66749,8.45656 1.66749,9.34986 1.60794,10.1836 1.66749,10.9578 1.66749,11.67243 1.66749,12.26797 1.66749,12.80395 1.66749,13.22082 1.66749,13.51858 3.27543,27.57315 3.33498,27.57315 1.66749,13.45903 1.6675,13.22082 1.66749,12.80395 1.60793,12.20841 1.66749,11.73199 1.66749,10.9578 1.6675,10.1836 1.66749,9.34986 1.66749,8.39701 1.60793,7.50371 1.6675,6.31264 1.66749,5.30024 1.66749,4.10917 1.60793,2.97766 -0.0596,-0.1191 1.66749,1.78659 -0.17866,-0.1191 1.66749,0.59553 h -0.29776 l 1.66749,-0.59553 -0.17866,0.1191 1.60793,-1.78659 -0.1191,0.1191 1.66749,-2.97766 1.66749,-4.16873 1.66749,-5.24068 1.66749,-6.3722 1.66749,-7.44415 1.60794,-8.39701 1.66749,-9.34986 1.66749,-10.1836 1.66749,-10.9578 1.66749,-11.73199 1.66749,-12.20841 1.60794,-12.80395 1.66749,-13.22082 1.66749,-13.51858 3.33498,-27.5136 3.33498,-27.5136 1.6675,-13.57813 1.60793,-13.16127 1.66749,-12.8635 1.66749,-12.26797 1.6675,-11.67243 1.66749,-10.9578 1.66749,-10.1836 1.60793,-9.34986 1.66749,-8.45656 1.6675,-7.44416 1.66749,-6.43175 1.66749,-5.30024 1.66749,-4.22828 1.60794,-2.97766 c 0.0596,-0.0596 0.0596,-0.0596 0.1191,-0.1191 l 1.66749,-1.846154 c 0,-0.05955 0.11911,-0.119107 0.17866,-0.119107 l 1.66749,-0.595532 c 0.11911,-0.05955 0.17866,-0.05955 0.29777,0 l 1.66749,0.595532 c 0.0596,0 0.17866,0.05955 0.17866,0.119107 l 1.66749,1.846154 c 0.0596,0.0596 0.0596,0.0596 0.0596,0.1191 l 1.66749,2.97766 1.72705,4.16873 1.66749,5.35979 1.60794,6.43175 1.66749,7.44416 1.66749,8.45656 1.66749,9.34986 1.66749,10.1836 1.66749,10.9578 1.60794,11.67243 1.66749,12.26797 1.66749,12.80395 1.66749,13.22082 1.66749,13.51858 3.27543,27.57315 3.33498,27.57315 1.66749,13.45903 1.66749,13.22082 1.66749,12.80395 1.66749,12.20841 1.66749,11.73199 1.60794,10.9578 1.66749,10.1836 1.66749,9.34986 1.66749,8.39701 1.66749,7.50371 1.66749,6.31264 1.60794,5.30024 1.66749,4.10917 1.60794,2.97766 -0.0596,-0.1191 1.66749,1.78659 -0.17866,-0.1191 1.66749,0.59553 h -0.29777 l 1.66749,-0.59553 -0.17866,0.1191 1.60794,-1.78659 -0.11911,0.1191 1.6675,-2.97766 1.66749,-4.16873 1.66749,-5.24068 1.66749,-6.3722 1.66749,-7.44415 1.66749,-8.39701 1.66749,-9.34986 1.60794,-10.1836 1.66749,-10.9578 1.66749,-11.73199 1.66749,-12.20841 1.66749,-12.80395 1.66749,-13.22082 1.60794,-13.45903 3.33498,-27.57315 3.33498,-27.5136 1.66749,-13.57813 1.60794,-13.16127 1.66749,-12.8635 1.66749,-12.26797 1.66749,-11.67243 1.66749,-10.9578 1.66749,-10.1836 1.66749,-9.34986 1.66749,-8.45656 1.60794,-7.44416 1.66749,-6.43175 1.66749,-5.30024 1.66749,-4.22828 1.66749,-2.97766 c 0.0596,-0.0596 0.0596,-0.0596 0.11911,-0.1191 l 1.66749,-1.846154 c 0,-0.05955 0.0596,-0.119107 0.17866,-0.119107 l 1.60794,-0.595532 c 0.0596,-0.05955 0.17866,-0.05955 0.29777,0 l 1.66749,0.595532 c 0.0596,0 0.17866,0.05955 0.17866,0.119107 l 1.66749,1.846154 c 0.0596,0.0596 0.0596,0.0596 0.0596,0.1191 l 1.66749,2.97766 1.72704,4.16873 1.6675,5.35979 1.60793,6.43175 1.66749,7.44416 1.66749,8.45656 1.66749,9.34986 1.6675,10.1836 1.66749,10.9578 1.66749,11.67243 1.66749,12.26797 1.60794,12.80395 1.66749,13.22082 1.66749,13.51858 3.33498,27.57315 3.27543,27.57315 1.66749,13.45903 1.66749,13.22082 1.66749,12.80395 1.66749,12.20841 1.66749,11.73199 1.60794,10.9578 1.66749,10.1836 1.66749,9.34986 1.66749,8.39701 1.66749,7.50371 1.66749,6.31264 1.66749,5.30024 1.66749,4.10917 1.60794,2.97766 -0.11911,-0.1191 1.66749,1.78659 -0.17866,-0.1191 1.66749,0.59553 h -0.29776 l 1.66749,-0.59553 -0.17866,0.1191 1.66749,-1.78659 -0.11911,0.1191 1.66749,-2.97766 v 0.0596 l 1.60794,-4.16872 1.66749,-5.30024 1.66749,-6.3722 1.66749,-7.44415 1.6675,-8.39701 1.66749,-9.34986 1.60793,-10.1836 1.66749,-10.9578 1.66749,-11.73199 1.6675,-12.20841 1.66749,-12.80395 1.66749,-13.22082 1.66749,-13.51858 3.27543,-27.5136 3.33498,-27.5136 1.66749,-13.57813 1.66749,-13.22082 1.66749,-12.80395 1.60794,-12.26797 1.66749,-11.67243 1.66749,-10.9578 1.66749,-10.1836 1.66749,-9.34986 1.66749,-8.45656 1.60794,-7.44416 1.66749,-6.43175 1.66749,-5.30024 1.66749,-4.22828 1.66749,-2.97766 c 0.0595,-0.0596 0.0595,-0.0596 0.11911,-0.1191 l 1.66749,-1.846154 c 0,-0.05955 0.1191,-0.119107 0.17866,-0.119107 l 1.66749,-0.595532 c 0.1191,-0.05955 0.17866,-0.05955 0.29776,0 l 1.6675,0.595532 c 0.0596,0 0.17866,0.05955 0.23821,0.119107 l 1.60794,1.846154 c 0,0.0596 0,0.0596 0,0.1191 l 1.66749,2.97766 1.72704,4.16873 1.66749,5.35979 1.66749,6.3722 1.66749,7.50371 1.60794,8.45656 1.66749,9.34986 1.66749,10.1836 1.66749,10.9578 1.66749,11.67243 1.66749,12.26797 1.60794,12.80395 1.66749,13.22082 1.66749,13.51858 3.33498,27.57315 3.33499,27.57315 1.66749,13.45903 1.60793,13.28038 1.66749,12.74439 1.6675,12.20841 1.66749,11.73199 1.66749,10.9578 1.66749,10.1836 1.60793,9.34986 1.6675,8.39701 1.66749,7.50371 1.66749,6.31264 1.66749,5.30024 1.66749,4.10917 1.60794,2.97766 -0.11911,-0.1191 1.66749,1.78659 -0.17866,-0.1191 1.66749,0.59553 h -0.29777 l 1.6675,-0.59553 -0.17866,0.1191 1.66749,-1.78659 -0.11911,0.1191 1.66749,-2.97766 1.66749,-4.16873 1.66749,-5.24068 1.60794,-6.31264 1.66749,-7.50371 1.66749,-8.39701 1.66749,-9.34986 1.66749,-10.1836 1.66749,-10.9578 1.60794,-11.73199 1.66749,-12.20841 1.66749,-12.80395 1.66749,-13.22082 1.66749,-13.51858 3.27543,-27.5136 3.33498,-27.5136 1.66749,-13.57813 1.66749,-13.22082 1.6675,-12.80395 1.66749,-12.26797 1.66749,-11.67243 1.60793,-10.9578 1.6675,-10.1836 1.66749,-9.34986 1.66749,-8.45656 1.66749,-7.44416 1.66749,-6.43175 1.60794,-5.30024 1.66749,-4.22828 1.66749,-2.97766 c 0.0596,-0.0596 0.0596,-0.0596 0.1191,-0.1191 l 1.66749,-1.846154 c 0,-0.05955 0.11911,-0.119107 0.17866,-0.119107 l 1.66749,-0.595532 c 0.11911,-0.05955 0.17866,-0.05955 0.29777,0 l 1.66749,0.595532 c 0.0595,0 0.17866,0.05955 0.23821,0.119107 l 1.60794,1.846154 c 0,0.0596 0,0.0596 0,0.1191 l 1.66749,2.97766 1.72705,4.16873 1.66749,5.35979 1.66749,6.3722 1.66749,7.50371 1.66749,8.45656 1.66749,9.34986 1.60794,10.1836 1.66749,10.9578 1.66749,11.67243 1.66749,12.26797 1.66749,12.80395 1.66749,13.22082 1.60794,13.57813 3.33498,27.5136 3.33498,27.57315 1.66749,13.45903 1.60794,13.28038 1.66749,12.74439 1.66749,12.20841 1.66749,11.73199 1.66749,10.9578 1.66749,10.1836 1.66749,9.34986 1.6675,8.39701 1.60793,7.50371 1.66749,6.31264 1.66749,5.30024 1.66749,4.10917 1.60794,2.97766 -0.0595,-0.1191 1.66749,1.78659 -0.17866,-0.1191 1.60794,0.59553 h -0.29777 l 1.66749,-0.59553 -0.17866,0.1191 1.66749,-1.78659 -0.1191,0.1191 1.66749,-2.97766 1.66749,-4.16873 1.66749,-5.24068 1.60794,-6.31264 1.66749,-7.50371 1.66749,-8.39701 1.66749,-9.34986 1.66749,-10.1836 1.66749,-10.9578 1.66749,-11.73199 1.66749,-12.20841 1.60794,-12.80395 1.66749,-13.22082 1.66749,-13.51858 3.33498,-27.5136 3.27543,-27.5136 1.66749,-13.57813 1.66749,-13.22082 1.66749,-12.80395 1.66749,-12.26797 1.66749,-11.67243 1.60794,-10.9578 1.66749,-10.1836 1.66749,-9.34986 1.66749,-8.45656 1.66749,-7.44416 1.66749,-6.43175 1.6675,-5.30024 1.66749,-4.22828 1.60793,-2.97766 c 0.0596,-0.0596 0.0596,-0.0596 0.11911,-0.1191 l 1.66749,-1.846154 c 0,-0.05955 0.11911,-0.119107 0.17866,-0.119107 l 1.66749,-0.595532 c 0.11911,-0.05955 0.17866,-0.05955 0.29777,0 l 1.66749,0.595532 c 0.0596,0 0.17866,0.05955 0.17866,0.119107 l 1.66749,1.846154 c 0.0595,0.0596 0.0595,0.0596 0.0595,0.1191 l 1.66749,2.97766 c 0.0596,0 0.0596,0 0.0596,0.0596 l 1.60793,4.16872 1.66749,5.30024 1.66749,6.3722 1.6675,7.50371 1.66749,8.45656 1.66749,9.34986 1.60793,10.1836 1.66749,10.9578 1.6675,11.67243 1.66749,12.26797 1.66749,12.80395 1.66749,13.22082 1.66749,13.51858 3.27543,27.57315 3.33498,27.57315 1.66749,13.45903 1.66749,13.22082 1.66749,12.80395 1.60794,12.20841 1.66749,11.73199 1.66749,10.9578 1.66749,10.1836 1.66749,9.34986 1.66749,8.39701 1.60794,7.50371 1.66749,6.31264 1.66749,5.30024 1.66749,4.10917 1.60794,2.97766 -0.0596,-0.1191 1.66749,1.78659 -0.17866,-0.1191 1.66749,0.59553 h -0.29777 l 1.66749,-0.59553 -0.17866,0.1191 1.60794,-1.78659 -0.11911,0.1191 1.66749,-2.97766 1.66749,-4.16873 1.66749,-5.24068 1.6675,-6.3722 1.66749,-7.44415 1.60793,-8.39701 1.66749,-9.34986 1.6675,-10.1836 1.66749,-10.9578 1.66749,-11.73199 1.66749,-12.20841 1.60793,-12.80395 1.6675,-13.22082 1.66749,-13.51858 3.33498,-27.5136 3.33498,-27.5136 1.66749,-13.57813 1.60794,-13.16127 1.66749,-12.8635 1.66749,-12.26797 1.66749,-11.67243 1.66749,-10.9578 1.66749,-10.1836 1.60794,-9.34986 1.66749,-8.45656 1.66749,-7.44416 1.66749,-6.43175 1.66749,-5.30024 1.66749,-4.22828 1.60794,-2.97766 c 0.0596,-0.0596 0.0596,-0.0596 0.11911,-0.1191 l 1.66749,-1.846154 c 0,-0.05955 0.1191,-0.119107 0.17866,-0.119107 l 1.66749,-0.595532 c 0.1191,-0.05955 0.17866,-0.05955 0.29776,0 l 1.66749,0.595532 c 0.0596,0 0.17866,0.05955 0.17866,0.119107 l 1.66749,1.846154 c 0.0596,0.0596 0.0596,0.0596 0.0596,0.1191 l 1.66749,2.97766 1.72704,4.16873 1.66749,5.35979 1.60794,6.43175 1.66749,7.44416 1.66749,8.45656 1.66749,9.34986 1.66749,10.1836 1.66749,10.9578 1.60794,11.67243 1.66749,12.26797 1.66749,12.80395 1.66749,13.22082 1.66749,13.51858 3.27543,27.57315 3.33498,27.57315 1.66749,13.45903 1.6675,13.22082 1.66749,12.80395 1.66749,12.20841 1.66749,11.73199 1.60794,10.9578 1.66749,10.1836 1.66749,9.34986 1.66749,8.39701 1.66749,7.50371 1.66749,6.31264 1.60794,5.30024 1.66749,4.10917 1.60793,2.97766 -0.0596,-0.1191 1.66749,1.78659 -0.17866,-0.1191 1.66749,0.59553 h -0.29776 l 1.66749,-0.59553 -0.17866,0.1191 1.60794,-1.78659 -0.11911,0.1191 1.66749,-2.97766 1.66749,-4.16873 1.66749,-5.24068 1.66749,-6.3722 1.66749,-7.44415 1.66749,-8.39701 1.66749,-9.34986 1.60794,-10.1836 1.66743,-10.9578 1.6675,-11.73199 1.6675,-12.20841 1.6675,-12.80395 1.6675,-13.22082 1.6079,-13.45903 3.335,-27.57315 3.335,-27.5136 1.6675,-13.57813 1.6079,-13.16127 1.6675,-12.8635 1.6675,-12.26797 1.6675,-11.67243 1.6675,-10.9578 1.6675,-10.1836 1.6675,-9.34986 1.6675,-8.45656 1.6079,-7.44416 1.6675,-6.43175 1.6675,-5.30024 1.6675,-4.22828 1.6675,-2.97766 c 0.059,-0.0596 0.059,-0.0596 0.1191,-0.1191 l 1.6675,-1.846154 c 0,-0.05955 0.06,-0.119107 0.1786,-0.119107 l 1.608,-0.595532 c 0.06,-0.05955 0.1786,-0.05955 0.2977,0 l 1.6675,0.595532 c 0.06,0 0.1787,0.05955 0.1787,0.119107 l 1.6675,1.846154 c 0.06,0.0596 0.06,0.0596 0.06,0.1191 l 1.6675,2.97766 1.727,4.16873 1.6675,5.35979 1.608,6.43175 1.6675,7.44416 1.6675,8.45656 1.6674,9.34986 1.6675,10.1836 1.6675,10.9578 1.6675,11.67243 1.6675,12.26797 1.6079,12.80395 1.6675,13.22082 1.6675,13.51858 3.335,27.57315 3.2754,27.57315 1.6675,13.45903 1.6675,13.22082 1.6675,12.80395 1.6675,12.20841 1.6675,11.73199 1.6079,10.9578 1.6675,10.1836 1.6675,9.34986 1.6675,8.39701 1.6675,7.50371 1.6675,6.31264 1.6675,5.30024 1.6675,4.10917 1.6079,2.97766 -0.1191,-0.1191 1.6675,1.78659 -0.1787,-0.1191 1.6675,0.59553 h -0.2977 l 1.6674,-0.59553 -0.1786,0.1191 1.6675,-1.78659 -0.1191,0.1191 1.6675,-2.97766 v 0.0596 l 1.6079,-4.16872 1.6675,-5.30024 1.6675,-6.3722 1.6675,-7.44415 1.6675,-8.39701 0.8337,-4.64515 0.8338,-4.88337 1.6079,-10.00494 c 0,-0.23822 0.2382,-0.41687 0.536,-0.35732 0.2382,0 0.4168,0.23821 0.3573,0.53598 l -1.608,10.00494 -0.8337,4.88337 -0.8337,4.64515 -1.6675,8.39701 -1.6675,7.50371 -1.6675,6.43175 -1.6675,5.30023 -1.6079,4.16873 c 0,0.0596 0,0.0596 -0.06,0.0596 l -1.6675,2.97767 c 0,0.0596 0,0.0596 -0.06,0.1191 l -1.6675,1.7866 c -0.06,0.0596 -0.1191,0.11911 -0.1787,0.11911 l -1.6675,0.59553 c -0.1191,0.0596 -0.1786,0.0596 -0.2977,0 l -1.6675,-0.59553 c -0.06,0 -0.1787,-0.0596 -0.1787,-0.11911 l -1.6675,-1.7866 c -0.059,-0.0596 -0.059,-0.0596 -0.1191,-0.1191 l -1.6079,-3.03722 -1.6675,-4.16873 -1.6675,-5.35979 -1.6675,-6.37219 -1.6675,-7.50371 -1.6675,-8.39701 -1.6675,-9.34986 -1.6675,-10.1836 -1.6079,-10.9578 -1.6675,-11.73199 -1.6675,-12.20841 -1.6675,-12.8635 -1.6675,-13.22082 -1.6675,-13.51859 -3.2754,-27.57315 -3.335,-27.51359 -1.6675,-13.51859 -1.6674,-13.22082 -1.608,-12.74439 -1.6675,-12.26797 -1.6675,-11.67243 -1.6675,-10.9578 -1.6674,-10.1836 -1.6675,-9.34986 -1.6675,-8.45656 -1.6675,-7.44416 -1.608,-6.31264 -1.6674,-5.30024 -1.6675,-4.10917 -1.6675,-2.97766 0.1191,0.1191 -1.6675,-1.846149 0.1786,0.119107 -1.6674,-0.595533 h 0.2977 l -1.6079,0.595533 0.1786,-0.119107 -1.6674,1.846149 0.06,-0.1191 -1.6079,2.9181 -1.6675,4.16873 -1.6675,5.24069 -1.6675,6.37219 -1.6079,7.44416 -1.6675,8.45656 -1.6675,9.34986 -1.6675,10.1836 -1.6675,10.9578 -1.6675,11.67243 -1.6675,12.26797 -1.6675,12.74439 -1.6079,13.22082 -1.6675,13.51859 -3.335,27.51359 -3.335,27.57315 -1.6079,13.51859 -1.6675,13.28037 -1.6675,12.80395 -1.6675,12.20841 -1.6675,11.73199 -1.66743,10.9578 -1.60794,10.1836 -1.66749,9.34986 -1.66749,8.39701 -1.66749,7.50371 -1.66749,6.43175 -1.66749,5.30023 -1.72705,4.22828 -1.66749,2.97767 c 0,0.0596 0,0.0596 -0.0596,0.1191 l -1.60794,1.7866 c 0,0.0596 -0.1191,0.11911 -0.17866,0.11911 l -1.66749,0.59553 c -0.1191,0.0596 -0.17866,0.0596 -0.29776,0 l -1.66749,-0.59553 c -0.0596,0 -0.17866,-0.0596 -0.17866,-0.11911 l -1.66749,-1.7866 c -0.0596,-0.0596 -0.0596,-0.0596 -0.11911,-0.1191 l -1.66749,-3.03722 -1.66749,-4.16873 -1.60794,-5.35979 -1.66749,-6.37219 -1.66749,-7.50371 -1.66749,-8.39701 -1.66749,-9.34986 -1.66749,-10.1836 -1.60794,-10.9578 -1.66749,-11.73199 -1.66749,-12.20841 -1.66749,-12.8635 -1.66749,-13.22082 -1.66749,-13.51859 -3.33499,-27.57315 -3.27542,-27.51359 -1.66749,-13.51859 -1.6675,-13.16126 -1.66749,-12.80395 -1.66749,-12.26797 -1.60793,-11.67243 -1.6675,-10.9578 -1.66749,-10.1836 -1.66749,-9.34986 -1.66749,-8.45656 -1.66749,-7.44416 -1.60794,-6.31264 -1.66749,-5.30024 -1.66749,-4.10917 -1.66749,-2.97766 0.11911,0.1191 -1.66749,-1.846149 0.17866,0.119107 -1.66749,-0.595533 h 0.29776 l -1.66749,0.595533 0.17866,-0.119107 -1.66749,1.846149 0.11911,-0.1191 -1.60794,2.9181 -1.66749,4.16873 -1.66749,5.24069 -1.66749,6.37219 -1.66749,7.44416 -1.66749,8.45656 -1.60794,9.34986 -1.66749,10.1836 -1.66749,10.9578 -1.66749,11.67243 -1.66749,12.26797 -1.66749,12.74439 -1.60794,13.22082 -1.66749,13.51859 -3.33498,27.51359 -3.33499,27.57315 -1.66749,13.51859 -1.66749,13.22082 -1.60793,12.8635 -1.66749,12.20841 -1.6675,11.73199 -1.66749,10.9578 -1.66749,10.1836 -1.66749,9.34986 -1.60794,8.39701 -1.66749,7.50371 -1.66749,6.43175 -1.66749,5.30023 -1.72704,4.22828 -1.66749,2.97767 c 0,0.0596 0,0.0596 -0.0596,0.1191 l -1.60793,1.7866 c 0,0.0596 -0.11911,0.11911 -0.17866,0.11911 l -1.66749,0.59553 c -0.11911,0.0596 -0.17866,0.0596 -0.29777,0 l -1.66749,-0.59553 c -0.0595,0 -0.17866,-0.0596 -0.17866,-0.11911 l -1.66749,-1.7866 c -0.0596,-0.0596 -0.0596,-0.0596 -0.11911,-0.1191 l -1.66749,-3.03722 -1.66749,-4.16873 -1.66749,-5.35979 -1.66749,-6.37219 -1.60794,-7.50371 -1.66749,-8.39701 -1.66749,-9.34986 -1.66749,-10.1836 -1.66749,-10.9578 -1.66749,-11.73199 -1.60794,-12.20841 -1.66749,-12.8635 -1.66749,-13.22082 -1.66749,-13.51859 -3.33498,-27.57315 -3.27543,-27.51359 -1.66749,-13.51859 -1.66749,-13.16126 -1.66749,-12.80395 -1.66749,-12.26797 -1.66749,-11.67243 -1.66749,-10.9578 -1.60794,-10.1836 -1.66749,-9.34986 -1.66749,-8.45656 -1.66749,-7.44416 -1.66749,-6.31264 -1.6675,-5.30024 -1.60793,-4.16873 v 0.0596 l -1.66749,-2.97766 0.1191,0.1191 -1.66749,-1.846149 0.17866,0.119107 -1.66749,-0.595533 h 0.29777 l -1.66749,0.595533 0.17866,-0.119107 -1.66749,1.846149 0.1191,-0.1191 -1.60794,2.9181 -1.66749,4.16873 -1.66749,5.24069 -1.66749,6.37219 -1.66749,7.44416 -1.66749,8.45656 -1.66749,9.34986 -1.66749,10.1836 -1.60794,10.9578 -1.66749,11.67243 -1.66749,12.26797 -1.66749,12.74439 -1.66749,13.22082 -1.66749,13.51859 -3.27543,27.51359 -3.33498,27.57315 -1.66749,13.51859 -1.66749,13.22082 -1.60794,12.8635 -1.66749,12.20841 -1.66749,11.73199 -1.66749,10.9578 -1.66749,10.1836 -1.66749,9.34986 -1.66749,8.39701 -1.6675,7.50371 -1.60793,6.43175 -1.66749,5.30023 -1.72705,4.22828 -1.66749,2.97767 c 0,0.0596 0,0.0596 -0.0596,0.1191 l -1.66749,1.7866 c -0.0596,0.0596 -0.11911,0.11911 -0.17866,0.11911 l -1.66749,0.59553 c -0.11911,0.0596 -0.23822,0.0596 -0.29777,0 l -1.60794,-0.59553 c -0.0596,0 -0.17866,-0.0596 -0.17866,-0.11911 l -1.66749,-1.7866 c -0.0595,-0.0596 -0.0595,-0.0596 -0.1191,-0.1191 l -1.66749,-3.03722 -1.66749,-4.16873 -1.6675,-5.35979 -1.66749,-6.37219 -1.60793,-7.50371 -1.66749,-8.39701 -1.6675,-9.34986 -1.66749,-10.1836 -1.66749,-10.9578 -1.66749,-11.73199 -1.66749,-12.20841 -1.66749,-12.8635 -1.60794,-13.22082 -1.66749,-13.51859 -3.33498,-27.57315 -3.33498,-27.51359 -1.60794,-13.51859 -1.66749,-13.16126 -1.66749,-12.80395 -1.66749,-12.26797 -1.66749,-11.67243 -1.66749,-10.9578 -1.60794,-10.1836 -1.66749,-9.34986 -1.66749,-8.45656 -1.66749,-7.44416 -1.66749,-6.31264 -1.66749,-5.30024 -1.66749,-4.10917 -1.66749,-2.97766 0.0596,0.1191 -1.60794,-1.846149 0.23822,0.119107 -1.6675,-0.595533 h 0.29777 l -1.66749,0.595533 0.17866,-0.119107 -1.66749,1.846149 0.0596,-0.1191 -1.60794,2.9181 -1.66749,4.16873 -1.60793,5.24069 -1.66749,6.37219 -1.66749,7.44416 -1.6675,8.45656 -1.66749,9.34986 -1.66749,10.1836 -1.60793,10.9578 -1.6675,11.67243 -1.66749,12.26797 -1.66749,12.74439 -1.66749,13.22082 -1.66749,13.51859 -3.33498,27.51359 -3.27543,27.57315 -1.66749,13.51859 -1.66749,13.28037 -1.66749,12.80395 -1.66749,12.20841 -1.60794,11.73199 -1.66749,10.9578 -1.66749,10.1836 -1.66749,9.34986 -1.66749,8.39701 -1.66749,7.50371 -1.60794,6.43175 -1.66749,5.30023 -1.72704,4.22828 -1.66749,2.97767 c 0,0.0596 0,0.0596 -0.0596,0.1191 l -1.66749,1.7866 c -0.0595,0.0596 -0.1191,0.11911 -0.17866,0.11911 l -1.66749,0.59553 c -0.11911,0.0596 -0.17866,0.0596 -0.29777,0 l -1.66749,-0.59553 c -0.0595,0 -0.17866,-0.0596 -0.17866,-0.11911 l -1.66749,-1.7866 c -0.0595,-0.0596 -0.0595,-0.0596 -0.1191,-0.1191 l -1.60794,-3.03722 -1.66749,-4.16873 -1.66749,-5.35979 -1.66749,-6.37219 -1.66749,-7.50371 -1.66749,-8.39701 -1.60794,-9.34986 -1.66749,-10.1836 -1.66749,-10.9578 -1.66749,-11.73199 -1.66749,-12.20841 -1.66749,-12.8635 -1.60794,-13.22082 -1.66749,-13.51859 -3.33498,-27.57315 -3.33499,-27.51359 -1.66749,-13.51859 -1.66749,-13.22082 -1.60793,-12.74439 -1.6675,-12.26797 -1.66749,-11.67243 -1.66749,-10.9578 -1.66749,-10.1836 -1.66749,-9.34986 -1.60794,-8.45656 -1.66749,-7.44416 -1.66749,-6.31264 -1.66749,-5.30024 -1.66749,-4.10917 -1.66749,-2.97766 0.0595,0.1191 -1.60793,-1.846149 0.23821,0.119107 -1.66749,-0.595533 h 0.29776 l -1.66749,0.595533 0.17866,-0.119107 -1.66749,1.846149 0.0596,-0.1191 -1.60794,2.9181 -1.66749,4.16873 -1.66749,5.24069 -1.66749,6.37219 -1.60794,7.44416 -1.66749,8.45656 -1.66749,9.34986 -1.66749,10.1836 -1.66749,10.9578 -1.66749,11.67243 -1.60794,12.26797 -1.66749,12.74439 -1.66749,13.22082 -1.66749,13.51859 -3.33499,27.51359 -3.27542,27.57315 -1.66749,13.51859 -1.6675,13.28037 -1.66749,12.80395 -1.66749,12.20841 -1.66749,11.73199 -1.66749,10.9578 -1.60794,10.1836 -1.66749,9.34986 -1.66749,8.39701 -1.66749,7.50371 -1.66749,6.43175 -1.66749,5.30023 -1.60794,4.16873 c 0,0.0596 0,0.0596 -0.0596,0.0596 l -1.66749,2.97767 c 0,0.0596 0,0.0596 -0.0596,0.1191 l -1.66749,1.7866 c -0.0596,0.0596 -0.11911,0.11911 -0.17866,0.11911 l -1.6675,0.59553 c -0.1191,0.0596 -0.17865,0.0596 -0.29776,0 l -1.66749,-0.59553 c -0.0596,0 -0.17866,-0.0596 -0.17866,-0.11911 l -1.66749,-1.7866 c -0.0596,-0.0596 -0.0596,-0.0596 -0.11911,-0.1191 l -1.60794,-3.03722 -1.66749,-4.16873 -1.66749,-5.35979 -1.66749,-6.37219 -1.66749,-7.50371 -1.66749,-8.39701 -1.66749,-9.34986 -1.66749,-10.1836 -1.60794,-10.9578 -1.66749,-11.73199 -1.66749,-12.20841 -1.66749,-12.8635 -1.66749,-13.22082 -1.66749,-13.51859 -3.27543,-27.57315 -3.33498,-27.51359 -1.66749,-13.51859 -1.66749,-13.22082 -1.60794,-12.74439 -1.66749,-12.26797 -1.66749,-11.67243 -1.66749,-10.9578 -1.66749,-10.1836 -1.66749,-9.34986 -1.6675,-8.45656 -1.66749,-7.44416 -1.60793,-6.31264 -1.66749,-5.30024 -1.66749,-4.10917 -1.6675,-2.97766 0.11911,0.1191 -1.66749,-1.846149 0.17866,0.119107 -1.66749,-0.595533 h 0.29777 l -1.60794,0.595533 0.17866,-0.119107 -1.66749,1.846149 0.0596,-0.1191 -1.60794,2.9181 -1.66749,4.16873 -1.66749,5.24069 -1.66749,6.37219 -1.60794,7.44416 -1.66749,8.45656 -1.66749,9.34986 -1.66749,10.1836 -1.66749,10.9578 -1.66749,11.67243 -1.66749,12.26797 -1.66749,12.74439 -1.60794,13.22082 -1.66749,13.51859 -3.33498,27.51359 -3.33498,27.57315 -1.60794,13.51859 -1.66749,13.28037 -1.66749,12.80395 -1.66749,12.20841 -1.66749,11.73199 -1.66749,10.9578 -1.60794,10.1836 -1.66749,9.34986 -1.66749,8.39701 -1.66749,7.50371 -1.66749,6.43175 -1.6675,5.30023 -1.72704,4.22828 -1.66749,2.97767 c 0,0.0596 0,0.0596 -0.0596,0.1191 l -1.60794,1.7866 c 0,0.0596 -0.11911,0.11911 -0.17866,0.11911 l -1.66749,0.59553 c -0.11911,0.0596 -0.17866,0.0596 -0.29777,0 l -1.66749,-0.59553 c -0.0596,0 -0.17866,-0.0596 -0.17866,-0.11911 l -1.66749,-1.7866 c -0.0596,-0.0596 -0.0596,-0.0596 -0.11911,-0.1191 l -1.66749,-3.03722 -1.66749,-4.16873 -1.60793,-5.35979 -1.66749,-6.37219 -1.6675,-7.50371 -1.66749,-8.39701 -1.66749,-9.34986 -1.66749,-10.1836 -1.60794,-10.9578 -1.66749,-11.73199 -1.66749,-12.20841 -1.66749,-12.8635 -1.66749,-13.22082 -1.66749,-13.51859 -3.33498,-27.57315 -3.27543,-27.51359 -1.66749,-13.51859 -1.66749,-13.16126 -1.66749,-12.80395 -1.66749,-12.26797 -1.60794,-11.67243 -1.66749,-10.9578 -1.66749,-10.1836 -1.66749,-9.34986 -1.66749,-8.45656 -1.66749,-7.44416 -1.60794,-6.31264 -1.66749,-5.30024 -1.66749,-4.10917 -1.66749,-2.97766 0.1191,0.1191 -1.66749,-1.846149 0.17866,0.119107 -1.66749,-0.595533 h 0.29777 l -1.66749,0.595533 0.17866,-0.119107 -1.66749,1.846149 0.1191,-0.1191 -1.60793,2.9181 -1.66749,4.16873 -1.6675,5.24069 -1.66749,6.37219 -1.66749,7.44416 -1.66749,8.45656 -1.60793,9.34986 -1.6675,10.1836 -1.66749,10.9578 -1.66749,11.67243 -1.66749,12.26797 -1.66749,12.74439 -1.60794,13.22082 -1.66749,13.51859 -3.33498,27.51359 -3.33498,27.57315 -1.66749,13.51859 -1.66749,13.22082 -1.60794,12.8635 -1.66749,12.20841 -1.66749,11.73199 -1.66749,10.9578 -1.66749,10.1836 -1.66749,9.34986 -1.60794,8.39701 -1.66749,7.50371 -1.66749,6.43175 -1.66749,5.30023 -1.72705,4.22828 -1.66749,2.97767 c 0,0.0596 0,0.0596 -0.0596,0.1191 l -1.60794,1.7866 c 0,0.0596 -0.1191,0.11911 -0.17866,0.11911 l -1.66749,0.59553 c -0.1191,0.0596 -0.17866,0.0596 -0.29776,0 l -1.66749,-0.59553 c -0.0596,0 -0.17866,-0.0596 -0.17866,-0.11911 l -1.66749,-1.7866 c -0.0596,-0.0596 -0.0596,-0.0596 -0.11911,-0.1191 l -1.66749,-3.03722 -1.66749,-4.16873 -1.66749,-5.35979 -1.66749,-6.37219 -1.60794,-7.50371 -1.66749,-8.39701 -1.66749,-9.34986 -1.66749,-10.1836 -1.66749,-10.9578 -1.6675,-11.73199 -1.60793,-12.20841 -1.66749,-12.8635 -1.66749,-13.22082 -1.66749,-13.51859 -3.33499,-27.57315 -3.27542,-27.51359 -1.6675,-13.51859 -1.66749,-13.16126 -1.66749,-12.80395 -1.66749,-12.26797 -1.66749,-11.67243 -1.66749,-10.9578 -1.60794,-10.1836 -1.66749,-9.34986 -1.66749,-8.45656 -1.66749,-7.44416 -1.66749,-6.31264 -1.66749,-5.30024 -1.60794,-4.16873 v 0.0596 l -1.66749,-2.97766 0.11911,0.1191 -1.66749,-1.846149 0.17866,0.119107 -1.66749,-0.595533 h 0.29776 l -1.66749,0.595533 0.17866,-0.119107 -1.66749,1.846149 0.11911,-0.1191 -1.60794,2.9181 -1.66749,4.16873 -1.66749,5.24069 -1.66749,6.37219 -1.66749,7.44416 -1.66749,8.45656 -1.66749,9.34986 -1.66749,10.1836 -1.60794,10.9578 -1.66749,11.67243 -1.66749,12.26797 -1.66749,12.74439 -1.6675,13.22082 -1.66749,13.51859 -3.27542,27.51359 -3.33499,27.57315 -1.66749,13.51859 -1.66749,13.22082 -1.60793,12.8635 -1.6675,12.20841 -1.66749,11.73199 -1.66749,10.9578 -1.66749,10.1836 -1.66749,9.34986 -1.66749,8.39701 -1.66749,7.50371 -1.60794,6.43175 -1.66749,5.30023 -1.72704,4.22828 -1.66749,2.97767 c 0,0.0596 0,0.0596 -0.0596,0.1191 l -1.66749,1.7866 c -0.0596,0.0596 -0.1191,0.11911 -0.17866,0.11911 l -1.66749,0.59553 c -0.1191,0.0596 -0.23821,0.0596 -0.29776,0 l -1.60794,-0.59553 c -0.0596,0 -0.17866,-0.0596 -0.17866,-0.11911 l -1.66749,-1.7866 c -0.0596,-0.0596 -0.0596,-0.0596 -0.11911,-0.1191 l -1.66749,-3.03722 -1.66749,-4.16873 -1.66749,-5.35979 -1.66749,-6.37219 -1.60794,-7.50371 -1.66749,-8.39701 -1.66749,-9.34986 -1.66749,-10.1836 -1.66749,-10.9578 -1.66749,-11.73199 -1.66749,-12.20841 -1.66749,-12.8635 -1.60794,-13.22082 -1.66749,-13.51859 -3.33498,-27.57315 -3.33498,-27.51359 -1.60794,-13.51859 -1.66749,-13.16126 -1.66749,-12.80395 -1.66749,-12.26797 -1.66749,-11.67243 -1.6675,-10.9578 -1.60793,-10.1836 -1.667493,-9.34986 -1.667491,-8.45656 -1.667491,-7.44416 -1.66749,-6.31264 -1.667491,-5.30024 -1.667491,-4.10917 -1.667491,-2.97766 0.05955,0.1191 -1.607938,-1.846149 0.238213,0.119107 -1.667491,-0.595533 h 0.297767 l -1.667491,0.595533 0.17866,-0.119107 -1.667491,1.846149 0.05955,-0.1191 -1.607937,2.9181 -1.667491,4.16873 -1.607938,5.24069 -1.66749,6.37219 -1.667491,7.44416 -1.667491,8.45656 -1.66749,9.34986 -1.667491,10.1836 -1.607938,10.9578 -1.66749,11.67243 -1.667491,12.26797 -1.667491,12.74439 -1.667491,13.22082 -1.66749,13.51859 -3.334982,27.51359 c 0,0.29777 -0.238213,0.47643 -0.476426,0.41688 -0.297766,0 -0.476426,-0.23822 -0.416872,-0.47643 z" id="path3767" transform="matrix(1.4120701,0,0,1.5678408,19.270385,-430.2963)"/>
  </g>
</svg>