<?xml version="1.0" encoding="UTF-8" standalone="no"?>
<!-- Created with Inkscape (http://www.inkscape.org/) -->
<svg sodipodi:docname="0309.svg" inkscape:version="1.1 (c68e22c387, 2021-05-23)" version="1.1" id="svg2" height="1440" width="1800" inkscape:export-filename="C:\Documents and Settings\Felhasználó\Dokumentumok\WIKIPEDIA_TMP\hajítások\fuggoleges_hajitas1.png" inkscape:export-xdpi="300" inkscape:export-ydpi="300" xmlns:inkscape="http://www.inkscape.org/namespaces/inkscape" xmlns:sodipodi="http://sodipodi.sourceforge.net/DTD/sodipodi-0.dtd" xmlns="http://www.w3.org/2000/svg" xmlns:svg="http://www.w3.org/2000/svg" xmlns:rdf="http://www.w3.org/1999/02/22-rdf-syntax-ns#" xmlns:cc="http://creativecommons.org/ns#" xmlns:dc="http://purl.org/dc/elements/1.1/">
  <sodipodi:namedview id="base" pagecolor="#ffffff" bordercolor="#666666" borderopacity="1.0" inkscape:pageopacity="0.0" inkscape:pageshadow="2" inkscape:zoom="0.35" inkscape:cx="900" inkscape:cy="720" inkscape:document-units="px" inkscape:current-layer="layer1" showgrid="false" inkscape:window-width="1366" inkscape:window-height="705" inkscape:window-x="-8" inkscape:window-y="-8" inkscape:window-maximized="1" inkscape:snap-global="true" showguides="false" inkscape:guide-bbox="true" inkscape:snap-bbox="true" inkscape:snap-bbox-edge-midpoints="true" inkscape:bbox-nodes="true" inkscape:snap-nodes="true" inkscape:snap-center="true" inkscape:pagecheckerboard="0" inkscape:snap-bbox-midpoints="true" inkscape:snap-object-midpoints="true" inkscape:bbox-paths="true" inkscape:snap-others="true" inkscape:snap-intersection-paths="true" inkscape:object-paths="true" inkscape:snap-smooth-nodes="true">
    <sodipodi:guide position="308.29726,720" orientation="0,1" id="guide1881" inkscape:label="" inkscape:locked="false" inkscape:color="rgb(0,0,255)"/>
    <sodipodi:guide position="215.40233,320" orientation="0,1" id="guide1883" inkscape:label="" inkscape:locked="false" inkscape:color="rgb(0,0,255)"/>
    <sodipodi:guide position="754.28571,1120" orientation="0,1" id="guide1991" inkscape:label="" inkscape:locked="false" inkscape:color="rgb(0,0,255)"/>
    <sodipodi:guide position="380,1371.4286" orientation="-1,0" id="guide2267" inkscape:label="" inkscape:locked="false" inkscape:color="rgb(0,0,255)"/>
    <sodipodi:guide position="560,1311.4286" orientation="-1,0" id="guide2269" inkscape:label="" inkscape:locked="false" inkscape:color="rgb(0,0,255)"/>
    <sodipodi:guide position="740,1334.2857" orientation="-1,0" id="guide2271" inkscape:label="" inkscape:locked="false" inkscape:color="rgb(0,0,255)"/>
    <sodipodi:guide position="920,1328.5714" orientation="-1,0" id="guide2273" inkscape:label="" inkscape:locked="false" inkscape:color="rgb(0,0,255)"/>
    <sodipodi:guide position="1640,1248.5714" orientation="-1,0" id="guide2275" inkscape:label="" inkscape:locked="false" inkscape:color="rgb(0,0,255)"/>
    <sodipodi:guide position="1100,968.57143" orientation="-1,0" id="guide1297" inkscape:label="" inkscape:locked="false" inkscape:color="rgb(0,0,255)"/>
    <sodipodi:guide position="1460,719.92313" orientation="-1,0" id="guide1379" inkscape:label="" inkscape:locked="false" inkscape:color="rgb(0,0,255)"/>
    <sodipodi:guide position="1280,719.92313" orientation="-1,0" id="guide1381" inkscape:label="" inkscape:locked="false" inkscape:color="rgb(0,0,255)"/>
  </sodipodi:namedview>
  <defs id="defs4">
    <marker style="overflow:visible" id="Arrow2Mstart" refX="0.0" refY="0.0" orient="auto" inkscape:stockid="Arrow2Mstart" inkscape:isstock="true">
      <path transform="scale(0.6) translate(0,0)" d="M 8.7185878,4.0337352 L -2.2072895,0.016013256 L 8.7185884,-4.0017078 C 6.9730900,-1.6296469 6.9831476,1.6157441 8.7185878,4.0337352 z " style="fill-rule:evenodd;fill:context-stroke;stroke-width:0.62500000;stroke-linejoin:round" id="path1235"/>
    </marker>
    <linearGradient id="linearGradient8342" inkscape:swatch="solid">
      <stop id="stop8344" offset="0" style="stop-color:#0000ff;stop-opacity:1;"/>
    </linearGradient>
    <linearGradient id="linearGradient5953" inkscape:swatch="solid">
      <stop id="stop5955" offset="0" style="stop-color:#0000ff;stop-opacity:1;"/>
    </linearGradient>
  </defs>
  <metadata id="metadata7">
    <rdf:RDF>
      <cc:Work rdf:about="">
        <dc:format>image/svg+xml</dc:format>
        <dc:type rdf:resource="http://purl.org/dc/dcmitype/StillImage"/>
      </cc:Work>
    </rdf:RDF>
  </metadata>
  <g transform="translate(0,387.63782)" id="layer1" inkscape:groupmode="layer" inkscape:label="1. réteg">
    <path style="fill:none;stroke:#000000;stroke-width:8;stroke-linecap:butt;stroke-linejoin:miter;stroke-miterlimit:4;stroke-dasharray:none;stroke-opacity:1;marker-start:url(#Arrow2Mstart)" d="M 230,-288.61853 V 963.93787" id="path1063" sodipodi:nodetypes="cc"/>
    <g id="g15516"/>
    <circle style="fill:none;stroke:#ff0000;stroke-width:5.15794962;stroke-miterlimit:4;stroke-dasharray:none;stroke-opacity:1" id="circle9670" cx="727.159" cy="717.27594" rx="302.2265" ry="400.07864" transform="matrix(0.93969262,-0.34202014,0,1,0,0)"/>
    <circle style="fill:none;stroke:#00a000;stroke-width:5.15794962;stroke-miterlimit:4;stroke-dasharray:none;stroke-opacity:1;marker-mid:" id="path234" cx="727.159" cy="717.27594" rx="302.2265" ry="400.07864" transform="matrix(0.93969262,-0.34202014,0,1,0,0)"/>
    <circle style="fill:none;stroke:#ff0000;stroke-width:5.15794962;stroke-miterlimit:4;stroke-dasharray:none;stroke-opacity:1" id="circle9690" cx="727.159" cy="717.27594" rx="302.2265" ry="400.07864" transform="matrix(0.93969262,-0.34202014,0,1,0,0)"/>
    <circle style="fill:none;stroke:#00a000;stroke-width:5.15794962;stroke-miterlimit:4;stroke-dasharray:none;stroke-opacity:1;marker-mid:" id="circle9728" cx="727.159" cy="717.27594" rx="302.2265" ry="400.07864" transform="matrix(0.93969262,-0.34202014,0,1,0,0)"/>
    <circle style="fill:none;stroke:#00a000;stroke-width:5.15794962;stroke-miterlimit:4;stroke-dasharray:none;stroke-opacity:1;marker-mid:" id="circle9730" cx="727.159" cy="717.27594" rx="302.2265" ry="400.07864" transform="matrix(0.93969262,-0.34202014,0,1,0,0)"/>
    <path style="fill:none;stroke:#000000;stroke-width:5;stroke-linecap:butt;stroke-linejoin:miter;stroke-miterlimit:4;stroke-dasharray:none;stroke-opacity:1" d="m 215,732.36218 h 30" id="path20496" sodipodi:nodetypes="cc"/>
    <text xml:space="preserve" style="font-style:italic;font-variant:normal;font-weight:normal;font-stretch:normal;font-size:96px;line-height:1.25;font-family:'Times New Roman';-inkscape-font-specification:'Times New Roman,  Italic';fill:#000000;fill-opacity:1" x="260.76376" y="-245.76039" id="text35222"><tspan sodipodi:role="line" id="tspan35220" x="260.76376" y="-245.76039">v</tspan></text>
    <text xml:space="preserve" style="font-style:italic;font-size:96px;line-height:1.25;font-family:'Times New Roman';-inkscape-font-specification:'Times New Roman,  Italic'" x="131.54726" y="364.14343" id="text37154"><tspan sodipodi:role="line" id="tspan37152" x="131.54726" y="364.14343">O</tspan></text>
    <path style="fill:none;stroke:#000000;stroke-width:7.97441;stroke-linecap:butt;stroke-linejoin:miter;stroke-miterlimit:4;stroke-dasharray:none;stroke-opacity:1;marker-start:url(#Arrow2Mstart)" d="M 1760.1348,332.43905 H 215" id="path2185" sodipodi:nodetypes="cc"/>
    <text xml:space="preserve" style="font-style:italic;font-variant:normal;font-weight:normal;font-stretch:normal;font-size:96px;line-height:1.25;font-family:'Times New Roman';-inkscape-font-specification:'Times New Roman,  Italic';fill:#000000;fill-opacity:1" x="1729.6208" y="289.66818" id="text17585"><tspan sodipodi:role="line" id="tspan17583" x="1729.6208" y="289.66818">t</tspan></text>
    <text xml:space="preserve" style="font-style:italic;font-size:96px;line-height:1.25;font-family:'Times New Roman';-inkscape-font-specification:'Times New Roman,  Italic'" x="915.49963" y="431.20975" id="text23090"><tspan sodipodi:role="line" id="tspan23088" x="915.49963" y="431.20975">T</tspan></text>
    <text xml:space="preserve" style="font-style:italic;font-size:96px;line-height:1.25;font-family:'Times New Roman';-inkscape-font-specification:'Times New Roman,  Italic'" x="1614.1012" y="431.866" id="text24318"><tspan sodipodi:role="line" id="tspan24316" x="1614.1012" y="431.866">2T</tspan></text>
    <path style="fill:none;stroke:#000000;stroke-width:5;stroke-linecap:butt;stroke-linejoin:miter;stroke-miterlimit:4;stroke-dasharray:none;stroke-opacity:1" d="m 950.02306,312.36218 v 40" id="path24455"/>
    <path style="fill:none;stroke:#000000;stroke-width:5;stroke-linecap:butt;stroke-linejoin:miter;stroke-miterlimit:4;stroke-dasharray:none;stroke-opacity:1" d="m 1130.0231,312.36218 v 40" id="path24617"/>
    <path style="fill:none;stroke:#000000;stroke-width:5;stroke-linecap:butt;stroke-linejoin:miter;stroke-miterlimit:4;stroke-dasharray:none;stroke-opacity:1" d="m 1310.0231,312.36218 v 40" id="path24619"/>
    <path style="fill:none;stroke:#000000;stroke-width:5;stroke-linecap:butt;stroke-linejoin:miter;stroke-miterlimit:4;stroke-dasharray:none;stroke-opacity:1" d="m 1490.0231,312.36218 v 40" id="path24621"/>
    <path style="fill:none;stroke:#000000;stroke-width:5;stroke-linecap:butt;stroke-linejoin:miter;stroke-miterlimit:4;stroke-dasharray:none;stroke-opacity:1" d="m 1670.0231,312.36218 v 40" id="path24623"/>
    <path style="fill:none;stroke:#000000;stroke-width:5;stroke-linecap:butt;stroke-linejoin:miter;stroke-miterlimit:4;stroke-dasharray:none;stroke-opacity:1" d="m 770.02306,312.36218 v 40" id="path24625"/>
    <path style="fill:none;stroke:#000000;stroke-width:5;stroke-linecap:butt;stroke-linejoin:miter;stroke-miterlimit:4;stroke-dasharray:none;stroke-opacity:1" d="m 590.02306,312.36218 v 40" id="path24627"/>
    <path style="fill:none;stroke:#000000;stroke-width:5;stroke-linecap:butt;stroke-linejoin:miter;stroke-miterlimit:4;stroke-dasharray:none;stroke-opacity:1" d="m 410.02306,312.36218 v 40" id="path24629"/>
    <path id="path17761" style="fill:none;stroke:#0000ff;stroke-width:8;stroke-linecap:butt;stroke-linejoin:miter;stroke-miterlimit:4;stroke-dasharray:none;stroke-opacity:1" d="m 410.02306,332.36218 c 0,0 -19.6678,-69.09803 -30,-103.5 -9.68937,-32.2616 -19.25972,-64.57288 -30,-96.5 -9.35986,-27.82361 -18.72595,-55.695464 -30,-82.8 -9.00221,-21.642684 -17.90578,-43.5211612 -30,-63.60039 -8.59927,-14.276796 -17.00348,-29.565779 -30,-39.99961 -8.56183,-6.873586 -19.02042,-13.6 -30,-13.6 m 180,400 c 0,0 19.6678,69.09803 30,103.5 9.68937,32.2616 19.25972,64.57288 30,96.5 9.35986,27.82361 18.72595,55.69546 30,82.8 9.00221,21.64269 17.90578,43.52117 30,63.6004 8.59927,14.27679 17.00348,29.56577 30,39.9996 8.56183,6.87359 19.02042,13.6 30,13.6 10.97958,0 21.43817,-6.72641 30,-13.6 12.99652,-10.43383 21.40073,-25.72281 30,-39.9996 12.09422,-20.07923 20.99779,-41.95771 30,-63.6004 11.27405,-27.10454 20.64014,-54.97639 30,-82.8 10.74028,-31.92712 20.30746,-64.23936 30,-96.5 10.32857,-34.3776 20.00339,-68.94824 30,-103.42383 10.0034,-34.49902 19.6678,-69.09803 30,-103.5 9.68937,-32.2616 19.25972,-64.57288 30,-96.5 9.35986,-27.82361 18.72595,-55.695464 30,-82.8 9.00221,-21.642684 17.90578,-43.5211612 30,-63.60039 8.59927,-14.276796 17.00348,-29.565779 30,-39.99961 8.56183,-6.873586 19.02042,-13.6 30,-13.6 10.97958,0 21.43817,6.726414 30,13.6 12.99652,10.433831 21.40074,25.722816 30.00004,39.99961 12.0942,20.0792306 20.9978,41.957703 30,63.60039 11.2741,27.104533 20.6401,54.97639 30,82.8 10.7403,31.92712 20.3106,64.2384 30,96.5 10.3322,34.40197 20,69 30,103.5 10,34.5 19.6678,69.09803 30,103.5 9.6894,32.2616 19.2597,64.57288 30,96.5 9.3599,27.82361 18.726,55.69546 30,82.8 9.0022,21.64269 17.9058,43.52117 30,63.6004 8.5993,14.27679 17.0035,29.56577 30,39.9996 8.5618,6.87359 19.0204,13.6 30,13.6 10.9796,0 21.4382,-6.72641 30,-13.6 12.9965,-10.43383 21.4007,-25.72281 30,-39.9996 12.0942,-20.07923 20.9978,-41.95771 30,-63.6004 11.274,-27.10454 20.6401,-54.97639 30,-82.8 10.7403,-31.92712 20.3139,-64.23741 30,-96.5 10.328,-34.40076 19.9845,-68.99956 29.9769,-103.4993 9.9999,-34.52565 19.6641,-69.1503 30,-103.57687 9.6862,-32.26256 19.6038,-64.45919 30,-96.5 8.992,-27.71308 17.1006,-55.780125 28,-82.8 8.7689,-21.738151 17.5937,-43.712209 30,-63.6 9.0374,-14.487287 18.5197,-29.519718 32,-40 8.6681,-6.739038 30,-13.6 30,-13.6" sodipodi:nodetypes="caaaaaccaaaaaaaaaaaaaaaaaaaaaaaaaaaaaaaaaaaaaaaaac"/>
    <text xml:space="preserve" style="font-size:96px;line-height:1.25;font-family:'Times New Roman';-inkscape-font-specification:'Times New Roman, '" x="14.113663" y="743.64502" id="text12386"><tspan sodipodi:role="line" id="tspan12384" x="14.113663" y="743.64502"><tspan style="font-style:italic;font-variant:normal;font-weight:normal;font-stretch:normal;font-family:'Times New Roman';-inkscape-font-specification:'Times New Roman,  Italic'" id="tspan12380">–v</tspan><tspan style="font-size:56px;baseline-shift:sub" id="tspan12382">max</tspan></tspan></text>
    <path style="fill:none;stroke:#000000;stroke-width:5;stroke-linecap:butt;stroke-linejoin:miter;stroke-miterlimit:4;stroke-dasharray:none;stroke-opacity:1" d="m 215,-67.63782 h 30" id="path20317" sodipodi:nodetypes="cc"/>
    <text xml:space="preserve" style="font-size:96px;line-height:1.25;font-family:'Times New Roman';-inkscape-font-specification:'Times New Roman, '" x="62.113663" y="-56.286648" id="text888"><tspan sodipodi:role="line" id="tspan886" x="62.113663" y="-56.286648"><tspan style="font-style:italic;font-variant:normal;font-weight:normal;font-stretch:normal;font-family:'Times New Roman';-inkscape-font-specification:'Times New Roman,  Italic'" id="tspan882">v</tspan><tspan style="font-size:56px;baseline-shift:sub" id="tspan884">max</tspan></tspan></text>
  </g>
</svg>